STARTFONT   2.1
FONT  
FONTBOUNDINGBOX 12 14 0 -3
STARTPROPERTIES 2
FONT_ASCENT 14
FONT_DESCENT 0
FOUNDRY  
WEIGHT_NAME  
SLANT  
SETWIDTH_NAME  
ADD_STYLE_NAME  
CHARSET_ENCODING 0
COPYRIGHT  
ENDPROPERTIES
CHARS 693
STARTCHAR 32
ENCODING 32
SWIDTH 1000 1000
DWIDTH 3 14
BBX 3 14 0 -3
BITMAP
00
00
00
00
00
00
00
00
00
00
00
00
00
00
ENDCHAR
STARTCHAR 33
ENCODING 33
SWIDTH 1000 1000
DWIDTH 2 14
BBX 2 14 0 -3
BITMAP
00
00
00
40
40
40
40
40
40
40
00
40
00
00
ENDCHAR
STARTCHAR 34
ENCODING 34
SWIDTH 1000 1000
DWIDTH 3 14
BBX 3 14 0 -3
BITMAP
00
00
00
00
00
00
a0
a0
a0
00
00
00
00
00
ENDCHAR
STARTCHAR 35
ENCODING 35
SWIDTH 1000 1000
DWIDTH 9 14
BBX 9 14 0 -3
BITMAP
0000
0000
0000
1200
1200
7f00
2400
2400
fe00
4800
4800
0000
0000
0000
ENDCHAR
STARTCHAR 36
ENCODING 36
SWIDTH 1000 1000
DWIDTH 5 14
BBX 5 14 0 -3
BITMAP
00
00
00
40
60
80
80
60
10
10
60
20
00
00
ENDCHAR
STARTCHAR 37
ENCODING 37
SWIDTH 1000 1000
DWIDTH 10 14
BBX 10 14 0 -3
BITMAP
0000
0000
0000
3100
4a00
4a00
4c00
3580
0640
0a40
0a40
1180
0000
0000
ENDCHAR
STARTCHAR 38
ENCODING 38
SWIDTH 1000 1000
DWIDTH 8 14
BBX 8 14 0 -3
BITMAP
00
00
00
18
24
24
28
30
4a
44
46
39
00
00
ENDCHAR
STARTCHAR 39
ENCODING 39
SWIDTH 1000 1000
DWIDTH 2 14
BBX 2 14 0 -3
BITMAP
00
00
00
00
00
00
40
40
40
00
00
00
00
00
ENDCHAR
STARTCHAR 40
ENCODING 40
SWIDTH 1000 1000
DWIDTH 4 14
BBX 4 14 0 -3
BITMAP
00
00
10
20
20
40
40
40
40
40
20
20
00
00
ENDCHAR
STARTCHAR 41
ENCODING 41
SWIDTH 1000 1000
DWIDTH 3 14
BBX 3 14 0 -3
BITMAP
00
00
80
40
40
20
20
20
20
20
40
40
00
00
ENDCHAR
STARTCHAR 42
ENCODING 42
SWIDTH 1000 1000
DWIDTH 5 14
BBX 5 14 0 -3
BITMAP
00
00
00
00
00
00
20
f8
20
50
00
00
00
00
ENDCHAR
STARTCHAR 43
ENCODING 43
SWIDTH 1000 1000
DWIDTH 5 14
BBX 5 14 0 -3
BITMAP
00
00
00
00
00
20
70
20
00
00
00
00
00
00
ENDCHAR
STARTCHAR 44
ENCODING 44
SWIDTH 1000 1000
DWIDTH 2 14
BBX 2 14 0 -3
BITMAP
00
00
00
00
00
00
00
00
00
00
40
40
00
00
ENDCHAR
STARTCHAR 45
ENCODING 45
SWIDTH 1000 1000
DWIDTH 3 14
BBX 3 14 0 -3
BITMAP
00
00
00
00
00
00
00
00
00
00
00
e0
00
00
ENDCHAR
STARTCHAR 46
ENCODING 46
SWIDTH 1000 1000
DWIDTH 2 14
BBX 2 14 0 -3
BITMAP
00
00
00
00
00
00
00
00
00
00
00
40
00
00
ENDCHAR
STARTCHAR 47
ENCODING 47
SWIDTH 1000 1000
DWIDTH 3 14
BBX 3 14 0 -3
BITMAP
00
00
00
20
20
40
40
40
40
40
80
80
00
00
ENDCHAR
STARTCHAR 48
ENCODING 48
SWIDTH 1000 1000
DWIDTH 6 14
BBX 6 14 0 -3
BITMAP
00
00
00
70
88
88
88
88
88
88
88
70
00
00
ENDCHAR
STARTCHAR 49
ENCODING 49
SWIDTH 1000 1000
DWIDTH 6 14
BBX 6 14 0 -3
BITMAP
00
00
00
20
60
a0
20
20
20
20
20
f8
00
00
ENDCHAR
STARTCHAR 50
ENCODING 50
SWIDTH 1000 1000
DWIDTH 6 14
BBX 6 14 0 -3
BITMAP
00
00
00
70
88
08
08
10
20
40
80
f8
00
00
ENDCHAR
STARTCHAR 51
ENCODING 51
SWIDTH 1000 1000
DWIDTH 6 14
BBX 6 14 0 -3
BITMAP
00
00
00
70
88
08
08
70
08
08
88
70
00
00
ENDCHAR
STARTCHAR 52
ENCODING 52
SWIDTH 1000 1000
DWIDTH 6 14
BBX 6 14 0 -3
BITMAP
00
00
00
10
30
50
50
90
90
f8
10
10
00
00
ENDCHAR
STARTCHAR 53
ENCODING 53
SWIDTH 1000 1000
DWIDTH 6 14
BBX 6 14 0 -3
BITMAP
00
00
00
f8
80
80
f0
08
08
08
88
70
00
00
ENDCHAR
STARTCHAR 54
ENCODING 54
SWIDTH 1000 1000
DWIDTH 6 14
BBX 6 14 0 -3
BITMAP
00
00
00
30
40
80
80
f0
88
88
88
70
00
00
ENDCHAR
STARTCHAR 55
ENCODING 55
SWIDTH 1000 1000
DWIDTH 5 14
BBX 5 14 0 -3
BITMAP
00
00
00
f0
10
20
20
40
40
80
80
80
00
00
ENDCHAR
STARTCHAR 56
ENCODING 56
SWIDTH 1000 1000
DWIDTH 6 14
BBX 6 14 0 -3
BITMAP
00
00
00
70
88
88
88
70
88
88
88
70
00
00
ENDCHAR
STARTCHAR 57
ENCODING 57
SWIDTH 1000 1000
DWIDTH 6 14
BBX 6 14 0 -3
BITMAP
00
00
00
70
88
88
88
78
08
08
10
60
00
00
ENDCHAR
STARTCHAR 58
ENCODING 58
SWIDTH 1000 1000
DWIDTH 2 14
BBX 2 14 0 -3
BITMAP
00
00
00
00
00
00
80
00
00
00
80
00
00
00
ENDCHAR
STARTCHAR 59
ENCODING 59
SWIDTH 1000 1000
DWIDTH 3 14
BBX 3 14 0 -3
BITMAP
00
00
00
00
40
00
00
00
00
00
40
40
00
00
ENDCHAR
STARTCHAR 60
ENCODING 60
SWIDTH 1000 1000
DWIDTH 6 14
BBX 6 14 0 -3
BITMAP
00
00
00
00
00
00
00
00
00
00
00
00
00
00
ENDCHAR
STARTCHAR 61
ENCODING 61
SWIDTH 1000 1000
DWIDTH 6 14
BBX 6 14 0 -3
BITMAP
00
00
00
00
00
00
00
00
00
fc
00
00
00
00
ENDCHAR
STARTCHAR 62
ENCODING 62
SWIDTH 1000 1000
DWIDTH 6 14
BBX 6 14 0 -3
BITMAP
00
00
00
00
00
00
00
00
00
00
00
00
00
00
ENDCHAR
STARTCHAR 63
ENCODING 63
SWIDTH 1000 1000
DWIDTH 6 14
BBX 6 14 0 -3
BITMAP
00
00
00
38
44
44
04
08
10
10
00
10
00
00
ENDCHAR
STARTCHAR 64
ENCODING 64
SWIDTH 1000 1000
DWIDTH 12 14
BBX 12 14 0 -3
BITMAP
0780
1860
2020
2690
4990
5110
5110
5120
4fc0
2010
1060
0f80
0000
0000
ENDCHAR
STARTCHAR 65
ENCODING 65
SWIDTH 1000 1000
DWIDTH 8 14
BBX 8 14 0 -3
BITMAP
00
00
00
10
10
28
28
44
44
7c
82
82
00
00
ENDCHAR
STARTCHAR 66
ENCODING 66
SWIDTH 1000 1000
DWIDTH 7 14
BBX 7 14 0 -3
BITMAP
00
00
00
f8
84
84
84
f8
84
84
84
f8
00
00
ENDCHAR
STARTCHAR 67
ENCODING 67
SWIDTH 1000 1000
DWIDTH 6 14
BBX 6 14 0 -3
BITMAP
00
00
00
78
80
80
80
80
80
80
80
78
00
00
ENDCHAR
STARTCHAR 68
ENCODING 68
SWIDTH 1000 1000
DWIDTH 7 14
BBX 7 14 0 -3
BITMAP
00
00
00
f0
88
84
84
84
84
84
88
f0
00
00
ENDCHAR
STARTCHAR 69
ENCODING 69
SWIDTH 1000 1000
DWIDTH 5 14
BBX 5 14 0 -3
BITMAP
00
00
00
f0
80
80
80
f0
80
80
80
f0
00
00
ENDCHAR
STARTCHAR 70
ENCODING 70
SWIDTH 1000 1000
DWIDTH 5 14
BBX 5 14 0 -3
BITMAP
00
00
00
f0
80
80
80
f0
80
80
80
80
00
00
ENDCHAR
STARTCHAR 71
ENCODING 71
SWIDTH 1000 1000
DWIDTH 6 14
BBX 6 14 0 -3
BITMAP
00
00
00
78
80
80
80
98
88
88
88
78
00
00
ENDCHAR
STARTCHAR 72
ENCODING 72
SWIDTH 1000 1000
DWIDTH 6 14
BBX 6 14 0 -3
BITMAP
00
00
00
88
88
88
88
f8
88
88
88
88
00
00
ENDCHAR
STARTCHAR 73
ENCODING 73
SWIDTH 1000 1000
DWIDTH 4 14
BBX 4 14 0 -3
BITMAP
00
00
00
e0
40
40
40
40
40
40
40
e0
00
00
ENDCHAR
STARTCHAR 74
ENCODING 74
SWIDTH 1000 1000
DWIDTH 4 14
BBX 4 14 0 -3
BITMAP
00
00
00
e0
40
40
40
40
40
40
40
80
00
00
ENDCHAR
STARTCHAR 75
ENCODING 75
SWIDTH 1000 1000
DWIDTH 6 14
BBX 6 14 0 -3
BITMAP
00
00
00
88
90
90
a0
c0
a0
90
90
88
00
00
ENDCHAR
STARTCHAR 76
ENCODING 76
SWIDTH 1000 1000
DWIDTH 5 14
BBX 5 14 0 -3
BITMAP
00
00
00
80
80
80
80
80
80
80
80
f0
00
00
ENDCHAR
STARTCHAR 77
ENCODING 77
SWIDTH 1000 1000
DWIDTH 8 14
BBX 8 14 0 -3
BITMAP
00
00
00
82
c6
aa
aa
92
92
82
82
82
00
00
ENDCHAR
STARTCHAR 78
ENCODING 78
SWIDTH 1000 1000
DWIDTH 7 14
BBX 7 14 0 -3
BITMAP
00
00
00
84
c4
a4
a4
94
94
8c
84
84
00
00
ENDCHAR
STARTCHAR 79
ENCODING 79
SWIDTH 1000 1000
DWIDTH 6 14
BBX 6 14 0 -3
BITMAP
00
00
00
70
88
88
88
88
88
88
88
70
00
00
ENDCHAR
STARTCHAR 80
ENCODING 80
SWIDTH 1000 1000
DWIDTH 6 14
BBX 6 14 0 -3
BITMAP
00
00
00
f0
88
88
88
88
f0
80
80
80
00
00
ENDCHAR
STARTCHAR 81
ENCODING 81
SWIDTH 1000 1000
DWIDTH 6 14
BBX 6 14 0 -3
BITMAP
00
00
00
70
88
88
88
88
88
88
70
18
00
00
ENDCHAR
STARTCHAR 82
ENCODING 82
SWIDTH 1000 1000
DWIDTH 6 14
BBX 6 14 0 -3
BITMAP
00
00
00
f0
88
88
88
f0
88
88
88
88
00
00
ENDCHAR
STARTCHAR 83
ENCODING 83
SWIDTH 1000 1000
DWIDTH 6 14
BBX 6 14 0 -3
BITMAP
00
00
00
78
80
80
40
20
10
08
08
f0
00
00
ENDCHAR
STARTCHAR 84
ENCODING 84
SWIDTH 1000 1000
DWIDTH 8 14
BBX 8 14 0 -3
BITMAP
00
00
00
fe
10
10
10
10
10
10
10
10
00
00
ENDCHAR
STARTCHAR 85
ENCODING 85
SWIDTH 1000 1000
DWIDTH 7 14
BBX 7 14 0 -3
BITMAP
00
00
00
84
84
84
84
84
84
84
84
78
00
00
ENDCHAR
STARTCHAR 86
ENCODING 86
SWIDTH 1000 1000
DWIDTH 8 14
BBX 8 14 0 -3
BITMAP
00
00
00
82
82
44
44
44
28
28
10
10
00
00
ENDCHAR
STARTCHAR 87
ENCODING 87
SWIDTH 1000 1000
DWIDTH 10 14
BBX 10 14 0 -3
BITMAP
0000
0000
0000
8880
8880
8880
8880
5500
5500
5500
2200
2200
0000
0000
ENDCHAR
STARTCHAR 88
ENCODING 88
SWIDTH 1000 1000
DWIDTH 8 14
BBX 8 14 0 -3
BITMAP
00
00
00
82
44
44
28
10
28
44
44
82
00
00
ENDCHAR
STARTCHAR 89
ENCODING 89
SWIDTH 1000 1000
DWIDTH 8 14
BBX 8 14 0 -3
BITMAP
00
00
00
82
44
44
28
10
10
10
10
10
00
00
ENDCHAR
STARTCHAR 90
ENCODING 90
SWIDTH 1000 1000
DWIDTH 6 14
BBX 6 14 0 -3
BITMAP
00
00
00
f8
08
10
10
20
40
40
80
f8
00
00
ENDCHAR
STARTCHAR 91
ENCODING 91
SWIDTH 1000 1000
DWIDTH 3 14
BBX 3 14 0 -3
BITMAP
00
00
c0
80
80
80
80
80
80
80
80
c0
00
00
ENDCHAR
STARTCHAR 92
ENCODING 92
SWIDTH 1000 1000
DWIDTH 3 14
BBX 3 14 0 -3
BITMAP
00
00
00
80
80
40
40
40
40
40
20
20
00
00
ENDCHAR
STARTCHAR 93
ENCODING 93
SWIDTH 1000 1000
DWIDTH 3 14
BBX 3 14 0 -3
BITMAP
00
00
c0
40
40
40
40
40
40
40
40
c0
00
00
ENDCHAR
STARTCHAR 94
ENCODING 94
SWIDTH 1000 1000
DWIDTH 6 14
BBX 6 14 0 -3
BITMAP
00
00
00
50
88
00
00
00
00
00
00
00
00
00
ENDCHAR
STARTCHAR 95
ENCODING 95
SWIDTH 1000 1000
DWIDTH 7 14
BBX 7 14 0 -3
BITMAP
00
00
00
00
00
00
00
00
00
00
00
00
00
00
ENDCHAR
STARTCHAR 96
ENCODING 96
SWIDTH 1000 1000
DWIDTH 3 14
BBX 3 14 0 -3
BITMAP
00
00
00
00
00
00
40
20
00
00
00
00
00
00
ENDCHAR
STARTCHAR 97
ENCODING 97
SWIDTH 1000 1000
DWIDTH 6 14
BBX 6 14 0 -3
BITMAP
00
00
00
00
00
70
08
08
78
88
88
78
00
00
ENDCHAR
STARTCHAR 98
ENCODING 98
SWIDTH 1000 1000
DWIDTH 6 14
BBX 6 14 0 -3
BITMAP
00
00
00
80
80
80
f0
88
88
88
88
f0
00
00
ENDCHAR
STARTCHAR 99
ENCODING 99
SWIDTH 1000 1000
DWIDTH 5 14
BBX 5 14 0 -3
BITMAP
00
00
00
00
00
70
80
80
80
80
80
70
00
00
ENDCHAR
STARTCHAR 100
ENCODING 100
SWIDTH 1000 1000
DWIDTH 6 14
BBX 6 14 0 -3
BITMAP
00
00
00
08
08
08
78
88
88
88
88
78
00
00
ENDCHAR
STARTCHAR 101
ENCODING 101
SWIDTH 1000 1000
DWIDTH 6 14
BBX 6 14 0 -3
BITMAP
00
00
00
00
00
70
88
88
f8
80
80
78
00
00
ENDCHAR
STARTCHAR 102
ENCODING 102
SWIDTH 1000 1000
DWIDTH 5 14
BBX 5 14 0 -3
BITMAP
00
00
30
40
40
f0
40
40
40
40
40
40
00
00
ENDCHAR
STARTCHAR 103
ENCODING 103
SWIDTH 1000 1000
DWIDTH 6 14
BBX 6 14 0 -3
BITMAP
00
00
00
00
00
78
88
88
88
88
78
08
08
70
ENDCHAR
STARTCHAR 104
ENCODING 104
SWIDTH 1000 1000
DWIDTH 6 14
BBX 6 14 0 -3
BITMAP
00
00
80
80
80
f0
88
88
88
88
88
88
00
00
ENDCHAR
STARTCHAR 105
ENCODING 105
SWIDTH 1000 1000
DWIDTH 2 14
BBX 2 14 0 -3
BITMAP
00
00
80
80
00
80
80
80
80
80
80
80
00
00
ENDCHAR
STARTCHAR 106
ENCODING 106
SWIDTH 1000 1000
DWIDTH 3 14
BBX 3 14 0 -3
BITMAP
00
00
40
40
00
40
40
40
40
40
40
80
00
00
ENDCHAR
STARTCHAR 107
ENCODING 107
SWIDTH 1000 1000
DWIDTH 6 14
BBX 6 14 0 -3
BITMAP
00
00
00
80
80
88
90
a0
c0
a0
90
88
00
00
ENDCHAR
STARTCHAR 108
ENCODING 108
SWIDTH 1000 1000
DWIDTH 2 14
BBX 2 14 0 -3
BITMAP
00
00
00
80
80
80
80
80
80
80
80
80
00
00
ENDCHAR
STARTCHAR 109
ENCODING 109
SWIDTH 1000 1000
DWIDTH 10 14
BBX 10 14 0 -3
BITMAP
0000
0000
0000
0000
0000
f700
8880
8880
8880
8880
8880
8880
0000
0000
ENDCHAR
STARTCHAR 110
ENCODING 110
SWIDTH 1000 1000
DWIDTH 6 14
BBX 6 14 0 -3
BITMAP
00
00
00
00
00
f0
88
88
88
88
88
88
00
00
ENDCHAR
STARTCHAR 111
ENCODING 111
SWIDTH 1000 1000
DWIDTH 6 14
BBX 6 14 0 -3
BITMAP
00
00
00
00
00
70
88
88
88
88
88
70
00
00
ENDCHAR
STARTCHAR 112
ENCODING 112
SWIDTH 1000 1000
DWIDTH 6 14
BBX 6 14 0 -3
BITMAP
00
00
00
00
00
f0
88
88
88
88
88
f0
80
80
ENDCHAR
STARTCHAR 113
ENCODING 113
SWIDTH 1000 1000
DWIDTH 6 14
BBX 6 14 0 -3
BITMAP
00
00
00
00
00
78
88
88
88
88
88
78
08
08
ENDCHAR
STARTCHAR 114
ENCODING 114
SWIDTH 1000 1000
DWIDTH 4 14
BBX 4 14 0 -3
BITMAP
00
00
00
00
00
e0
80
80
80
80
80
80
00
00
ENDCHAR
STARTCHAR 115
ENCODING 115
SWIDTH 1000 1000
DWIDTH 6 14
BBX 6 14 0 -3
BITMAP
00
00
00
00
00
78
80
80
70
08
08
f0
00
00
ENDCHAR
STARTCHAR 116
ENCODING 116
SWIDTH 1000 1000
DWIDTH 5 14
BBX 5 14 0 -3
BITMAP
00
00
00
40
40
f0
40
40
40
40
40
30
00
00
ENDCHAR
STARTCHAR 117
ENCODING 117
SWIDTH 1000 1000
DWIDTH 6 14
BBX 6 14 0 -3
BITMAP
00
00
00
00
00
88
88
88
88
88
88
78
00
00
ENDCHAR
STARTCHAR 118
ENCODING 118
SWIDTH 1000 1000
DWIDTH 6 14
BBX 6 14 0 -3
BITMAP
00
00
00
00
00
88
88
88
50
50
20
20
00
00
ENDCHAR
STARTCHAR 119
ENCODING 119
SWIDTH 1000 1000
DWIDTH 10 14
BBX 10 14 0 -3
BITMAP
0000
0000
0000
0000
0000
8880
8880
8880
5500
5500
2200
2200
0000
0000
ENDCHAR
STARTCHAR 120
ENCODING 120
SWIDTH 1000 1000
DWIDTH 6 14
BBX 6 14 0 -3
BITMAP
00
00
00
00
00
88
88
50
20
50
88
88
00
00
ENDCHAR
STARTCHAR 121
ENCODING 121
SWIDTH 1000 1000
DWIDTH 6 14
BBX 6 14 0 -3
BITMAP
00
00
00
00
00
88
88
50
50
20
20
20
c0
00
ENDCHAR
STARTCHAR 122
ENCODING 122
SWIDTH 1000 1000
DWIDTH 6 14
BBX 6 14 0 -3
BITMAP
00
00
00
00
00
f8
08
10
20
40
80
f8
00
00
ENDCHAR
STARTCHAR 123
ENCODING 123
SWIDTH 1000 1000
DWIDTH 3 14
BBX 3 14 0 -3
BITMAP
00
00
20
40
40
40
40
80
40
40
40
40
20
00
ENDCHAR
STARTCHAR 124
ENCODING 124
SWIDTH 1000 1000
DWIDTH 2 14
BBX 2 14 0 -3
BITMAP
00
00
40
40
40
40
40
40
40
40
40
40
00
00
ENDCHAR
STARTCHAR 125
ENCODING 125
SWIDTH 1000 1000
DWIDTH 4 14
BBX 4 14 0 -3
BITMAP
00
00
40
20
20
20
20
10
20
20
20
20
40
00
ENDCHAR
STARTCHAR 126
ENCODING 126
SWIDTH 1000 1000
DWIDTH 7 14
BBX 7 14 0 -3
BITMAP
00
00
00
00
00
00
00
00
00
00
32
4c
00
00
ENDCHAR
STARTCHAR 161
ENCODING 161
SWIDTH 1000 1000
DWIDTH 2 14
BBX 2 14 0 -3
BITMAP
00
00
00
00
40
00
40
40
40
40
40
40
00
00
ENDCHAR
STARTCHAR 162
ENCODING 162
SWIDTH 1000 1000
DWIDTH 6 14
BBX 6 14 0 -3
BITMAP
00
00
08
08
38
54
50
50
54
64
38
20
00
00
ENDCHAR
STARTCHAR 163
ENCODING 163
SWIDTH 1000 1000
DWIDTH 5 14
BBX 5 14 0 -3
BITMAP
00
00
00
30
48
40
40
f8
20
20
70
98
00
00
ENDCHAR
STARTCHAR 164
ENCODING 164
SWIDTH 1000 1000
DWIDTH 6 14
BBX 6 14 0 -3
BITMAP
00
00
00
00
00
00
00
00
54
28
44
28
00
00
ENDCHAR
STARTCHAR 165
ENCODING 165
SWIDTH 1000 1000
DWIDTH 7 14
BBX 7 14 0 -3
BITMAP
00
00
00
82
44
48
28
fe
10
fe
10
10
00
00
ENDCHAR
STARTCHAR 166
ENCODING 166
SWIDTH 1000 1000
DWIDTH 2 14
BBX 2 14 0 -3
BITMAP
00
00
40
40
40
40
00
00
40
40
40
40
00
00
ENDCHAR
STARTCHAR 167
ENCODING 167
SWIDTH 1000 1000
DWIDTH 7 14
BBX 7 14 0 -3
BITMAP
00
00
30
48
40
70
98
84
64
38
08
88
70
00
ENDCHAR
STARTCHAR 168
ENCODING 168
SWIDTH 1000 1000
DWIDTH 3 14
BBX 3 14 0 -3
BITMAP
00
00
00
00
00
00
a0
00
00
00
00
00
00
00
ENDCHAR
STARTCHAR 170
ENCODING 170
SWIDTH 1000 1000
DWIDTH 4 14
BBX 4 14 0 -3
BITMAP
00
00
00
00
00
00
70
10
f0
f0
00
00
00
00
ENDCHAR
STARTCHAR 171
ENCODING 171
SWIDTH 1000 1000
DWIDTH 6 14
BBX 6 14 0 -3
BITMAP
00
00
00
00
00
00
00
14
28
50
28
14
00
00
ENDCHAR
STARTCHAR 172
ENCODING 172
SWIDTH 1000 1000
DWIDTH 6 14
BBX 6 14 0 -3
BITMAP
00
00
00
00
00
00
00
00
00
fc
04
04
00
00
ENDCHAR
STARTCHAR 173
ENCODING 173
SWIDTH 1000 1000
DWIDTH 3 14
BBX 3 14 0 -3
BITMAP
00
00
00
00
00
00
00
00
00
00
00
e0
00
00
ENDCHAR
STARTCHAR 174
ENCODING 174
SWIDTH 1000 1000
DWIDTH 9 14
BBX 9 14 0 -3
BITMAP
0000
0000
0000
3e00
4100
bc80
a280
bc80
a480
a280
4100
3e00
0000
0000
ENDCHAR
STARTCHAR 175
ENCODING 175
SWIDTH 1000 1000
DWIDTH 7 14
BBX 7 14 0 -3
BITMAP
00
00
00
00
00
fe
00
00
00
00
00
00
00
00
ENDCHAR
STARTCHAR 176
ENCODING 176
SWIDTH 1000 1000
DWIDTH 4 14
BBX 4 14 0 -3
BITMAP
00
00
00
00
00
00
70
50
70
00
00
00
00
00
ENDCHAR
STARTCHAR 177
ENCODING 177
SWIDTH 1000 1000
DWIDTH 6 14
BBX 6 14 0 -3
BITMAP
00
00
00
00
00
10
10
7c
10
10
00
7c
00
00
ENDCHAR
STARTCHAR 179
ENCODING 179
SWIDTH 1000 1000
DWIDTH 4 14
BBX 4 14 0 -3
BITMAP
00
00
00
00
00
00
f0
20
10
f0
00
00
00
00
ENDCHAR
STARTCHAR 180
ENCODING 180
SWIDTH 1000 1000
DWIDTH 3 14
BBX 3 14 0 -3
BITMAP
00
00
00
00
00
00
20
40
00
00
00
00
00
00
ENDCHAR
STARTCHAR 181
ENCODING 181
SWIDTH 1000 1000
DWIDTH 6 14
BBX 6 14 0 -3
BITMAP
00
00
00
00
44
44
44
44
44
44
7c
40
00
00
ENDCHAR
STARTCHAR 182
ENCODING 182
SWIDTH 1000 1000
DWIDTH 6 14
BBX 6 14 0 -3
BITMAP
00
00
7c
e8
e8
e8
68
28
28
28
28
28
00
00
ENDCHAR
STARTCHAR 183
ENCODING 183
SWIDTH 1000 1000
DWIDTH 2 14
BBX 2 14 0 -3
BITMAP
00
00
00
00
00
00
00
00
00
00
40
00
00
00
ENDCHAR
STARTCHAR 184
ENCODING 184
SWIDTH 1000 1000
DWIDTH 4 14
BBX 4 14 0 -3
BITMAP
00
00
00
00
00
00
00
00
00
20
10
70
00
00
ENDCHAR
STARTCHAR 186
ENCODING 186
SWIDTH 1000 1000
DWIDTH 4 14
BBX 4 14 0 -3
BITMAP
00
00
00
00
00
00
60
90
90
60
00
00
00
00
ENDCHAR
STARTCHAR 187
ENCODING 187
SWIDTH 1000 1000
DWIDTH 6 14
BBX 6 14 0 -3
BITMAP
00
00
00
00
00
00
00
50
28
14
28
50
00
00
ENDCHAR
STARTCHAR 188
ENCODING 188
SWIDTH 1000 1000
DWIDTH 10 14
BBX 10 14 0 -3
BITMAP
0000
0000
0000
2100
6100
2200
2400
0400
0880
1180
23c0
2080
0000
0000
ENDCHAR
STARTCHAR 189
ENCODING 189
SWIDTH 1000 1000
DWIDTH 10 14
BBX 10 14 0 -3
BITMAP
0000
0000
0000
2100
6100
2200
2400
0400
0b80
1040
2080
23c0
0000
0000
ENDCHAR
STARTCHAR 190
ENCODING 190
SWIDTH 1000 1000
DWIDTH 10 14
BBX 10 14 0 -3
BITMAP
0000
0000
0000
e080
4100
2200
e400
0400
0880
1180
13c0
2080
0000
0000
ENDCHAR
STARTCHAR 191
ENCODING 191
SWIDTH 1000 1000
DWIDTH 6 14
BBX 6 14 0 -3
BITMAP
00
00
00
00
10
00
10
10
20
40
44
44
00
00
ENDCHAR
STARTCHAR 192
ENCODING 192
SWIDTH 1000 1000
DWIDTH 8 14
BBX 8 14 0 -3
BITMAP
20
10
00
10
10
28
28
44
44
7c
82
82
00
00
ENDCHAR
STARTCHAR 193
ENCODING 193
SWIDTH 1000 1000
DWIDTH 8 14
BBX 8 14 0 -3
BITMAP
08
10
00
10
10
28
28
44
44
7c
82
82
00
00
ENDCHAR
STARTCHAR 194
ENCODING 194
SWIDTH 1000 1000
DWIDTH 8 14
BBX 8 14 0 -3
BITMAP
00
00
00
10
10
28
28
44
44
7c
82
82
00
00
ENDCHAR
STARTCHAR 195
ENCODING 195
SWIDTH 1000 1000
DWIDTH 8 14
BBX 8 14 0 -3
BITMAP
00
00
00
10
10
28
28
44
44
7c
82
82
00
00
ENDCHAR
STARTCHAR 196
ENCODING 196
SWIDTH 1000 1000
DWIDTH 8 14
BBX 8 14 0 -3
BITMAP
00
28
00
10
10
28
28
44
44
7c
82
82
00
00
ENDCHAR
STARTCHAR 197
ENCODING 197
SWIDTH 1000 1000
DWIDTH 8 14
BBX 8 14 0 -3
BITMAP
10
28
10
10
10
28
28
44
44
7c
82
82
00
00
ENDCHAR
STARTCHAR 198
ENCODING 198
SWIDTH 1000 1000
DWIDTH 10 14
BBX 10 14 0 -3
BITMAP
0000
0000
0000
1f80
1800
2800
2800
4f80
4800
7800
8800
8f80
0000
0000
ENDCHAR
STARTCHAR 199
ENCODING 199
SWIDTH 1000 1000
DWIDTH 6 14
BBX 6 14 0 -3
BITMAP
00
00
00
78
80
80
80
80
80
80
78
20
10
60
ENDCHAR
STARTCHAR 200
ENCODING 200
SWIDTH 1000 1000
DWIDTH 7 14
BBX 7 14 0 -3
BITMAP
20
10
00
fc
80
80
80
fc
80
80
80
fc
00
00
ENDCHAR
STARTCHAR 201
ENCODING 201
SWIDTH 1000 1000
DWIDTH 7 14
BBX 7 14 0 -3
BITMAP
10
20
00
fc
80
80
80
fc
80
80
80
fc
00
00
ENDCHAR
STARTCHAR 202
ENCODING 202
SWIDTH 1000 1000
DWIDTH 7 14
BBX 7 14 0 -3
BITMAP
20
50
00
fc
80
80
80
fc
80
80
80
fc
00
00
ENDCHAR
STARTCHAR 203
ENCODING 203
SWIDTH 1000 1000
DWIDTH 7 14
BBX 7 14 0 -3
BITMAP
00
28
00
fc
80
80
80
fc
80
80
80
fc
00
00
ENDCHAR
STARTCHAR 204
ENCODING 204
SWIDTH 1000 1000
DWIDTH 3 14
BBX 3 14 0 -3
BITMAP
80
40
00
40
40
40
40
40
40
40
40
40
00
00
ENDCHAR
STARTCHAR 205
ENCODING 205
SWIDTH 1000 1000
DWIDTH 3 14
BBX 3 14 0 -3
BITMAP
40
80
00
80
80
80
80
80
80
80
80
80
00
00
ENDCHAR
STARTCHAR 206
ENCODING 206
SWIDTH 1000 1000
DWIDTH 3 14
BBX 3 14 0 -3
BITMAP
40
a0
00
40
40
40
40
40
40
40
40
40
00
00
ENDCHAR
STARTCHAR 207
ENCODING 207
SWIDTH 1000 1000
DWIDTH 3 14
BBX 3 14 0 -3
BITMAP
00
a0
00
40
40
40
40
40
40
40
40
40
00
00
ENDCHAR
STARTCHAR 208
ENCODING 208
SWIDTH 1000 1000
DWIDTH 9 14
BBX 9 14 0 -3
BITMAP
0000
0000
0000
7c00
4200
4100
4100
f900
4100
4100
4200
7c00
0000
0000
ENDCHAR
STARTCHAR 209
ENCODING 209
SWIDTH 1000 1000
DWIDTH 7 14
BBX 7 14 0 -3
BITMAP
14
28
00
84
c4
a4
a4
94
94
8c
84
84
00
00
ENDCHAR
STARTCHAR 210
ENCODING 210
SWIDTH 1000 1000
DWIDTH 7 14
BBX 7 14 0 -3
BITMAP
20
10
00
78
84
84
84
84
84
84
84
78
00
00
ENDCHAR
STARTCHAR 211
ENCODING 211
SWIDTH 1000 1000
DWIDTH 7 14
BBX 7 14 0 -3
BITMAP
08
10
00
78
84
84
84
84
84
84
84
78
00
00
ENDCHAR
STARTCHAR 212
ENCODING 212
SWIDTH 1000 1000
DWIDTH 7 14
BBX 7 14 0 -3
BITMAP
20
50
00
78
84
84
84
84
84
84
84
78
00
00
ENDCHAR
STARTCHAR 213
ENCODING 213
SWIDTH 1000 1000
DWIDTH 8 14
BBX 8 14 0 -3
BITMAP
14
28
00
3c
42
42
42
42
42
42
42
3c
00
00
ENDCHAR
STARTCHAR 214
ENCODING 214
SWIDTH 1000 1000
DWIDTH 8 14
BBX 8 14 0 -3
BITMAP
00
14
00
3c
42
42
42
42
42
42
42
3c
00
00
ENDCHAR
STARTCHAR 215
ENCODING 215
SWIDTH 1000 1000
DWIDTH 7 14
BBX 7 14 0 -3
BITMAP
00
00
00
00
00
82
44
28
10
28
44
82
00
00
ENDCHAR
STARTCHAR 216
ENCODING 216
SWIDTH 1000 1000
DWIDTH 7 14
BBX 7 14 0 -3
BITMAP
00
04
78
84
8c
8c
94
a4
c4
c4
84
78
80
00
ENDCHAR
STARTCHAR 217
ENCODING 217
SWIDTH 1000 1000
DWIDTH 7 14
BBX 7 14 0 -3
BITMAP
40
20
00
84
84
84
84
84
84
84
84
78
00
00
ENDCHAR
STARTCHAR 218
ENCODING 218
SWIDTH 1000 1000
DWIDTH 7 14
BBX 7 14 0 -3
BITMAP
10
20
00
84
84
84
84
84
84
84
84
78
00
00
ENDCHAR
STARTCHAR 219
ENCODING 219
SWIDTH 1000 1000
DWIDTH 7 14
BBX 7 14 0 -3
BITMAP
20
50
00
84
84
84
84
84
84
84
84
78
00
00
ENDCHAR
STARTCHAR 220
ENCODING 220
SWIDTH 1000 1000
DWIDTH 7 14
BBX 7 14 0 -3
BITMAP
00
48
00
84
84
84
84
84
84
84
84
78
00
00
ENDCHAR
STARTCHAR 221
ENCODING 221
SWIDTH 1000 1000
DWIDTH 8 14
BBX 8 14 0 -3
BITMAP
08
10
00
82
44
44
28
10
10
10
10
10
00
00
ENDCHAR
STARTCHAR 222
ENCODING 222
SWIDTH 1000 1000
DWIDTH 7 14
BBX 7 14 0 -3
BITMAP
00
00
00
80
80
f8
84
84
84
f8
80
80
00
00
ENDCHAR
STARTCHAR 223
ENCODING 223
SWIDTH 1000 1000
DWIDTH 7 14
BBX 7 14 0 -3
BITMAP
00
00
00
70
88
88
90
90
88
84
a4
98
00
00
ENDCHAR
STARTCHAR 224
ENCODING 224
SWIDTH 1000 1000
DWIDTH 6 14
BBX 6 14 0 -3
BITMAP
00
00
40
20
00
70
08
08
78
88
88
78
00
00
ENDCHAR
STARTCHAR 225
ENCODING 225
SWIDTH 1000 1000
DWIDTH 6 14
BBX 6 14 0 -3
BITMAP
00
00
10
20
00
70
08
08
78
88
88
78
00
00
ENDCHAR
STARTCHAR 226
ENCODING 226
SWIDTH 1000 1000
DWIDTH 6 14
BBX 6 14 0 -3
BITMAP
00
00
20
50
00
70
08
08
78
88
88
78
00
00
ENDCHAR
STARTCHAR 227
ENCODING 227
SWIDTH 1000 1000
DWIDTH 6 14
BBX 6 14 0 -3
BITMAP
00
00
28
50
00
70
08
08
78
88
88
78
00
00
ENDCHAR
STARTCHAR 228
ENCODING 228
SWIDTH 1000 1000
DWIDTH 6 14
BBX 6 14 0 -3
BITMAP
00
00
00
50
00
70
08
08
78
88
88
78
00
00
ENDCHAR
STARTCHAR 229
ENCODING 229
SWIDTH 1000 1000
DWIDTH 6 14
BBX 6 14 0 -3
BITMAP
00
20
50
20
00
70
08
08
78
88
88
78
00
00
ENDCHAR
STARTCHAR 230
ENCODING 230
SWIDTH 1000 1000
DWIDTH 10 14
BBX 10 14 0 -3
BITMAP
0000
0000
0000
0000
0000
7700
0880
0880
7f80
8800
8800
7780
0000
0000
ENDCHAR
STARTCHAR 231
ENCODING 231
SWIDTH 1000 1000
DWIDTH 5 14
BBX 5 14 0 -3
BITMAP
00
00
00
00
00
70
80
80
80
80
80
70
20
40
ENDCHAR
STARTCHAR 232
ENCODING 232
SWIDTH 1000 1000
DWIDTH 6 14
BBX 6 14 0 -3
BITMAP
00
00
40
20
00
70
88
88
f8
80
80
78
00
00
ENDCHAR
STARTCHAR 233
ENCODING 233
SWIDTH 1000 1000
DWIDTH 6 14
BBX 6 14 0 -3
BITMAP
00
00
10
20
00
70
88
88
f8
80
80
78
00
00
ENDCHAR
STARTCHAR 234
ENCODING 234
SWIDTH 1000 1000
DWIDTH 6 14
BBX 6 14 0 -3
BITMAP
00
00
20
50
00
70
88
88
f8
80
80
78
00
00
ENDCHAR
STARTCHAR 235
ENCODING 235
SWIDTH 1000 1000
DWIDTH 6 14
BBX 6 14 0 -3
BITMAP
00
00
00
50
00
70
88
88
f8
80
80
78
00
00
ENDCHAR
STARTCHAR 236
ENCODING 236
SWIDTH 1000 1000
DWIDTH 3 14
BBX 3 14 0 -3
BITMAP
00
00
80
40
00
40
40
40
40
40
40
40
00
00
ENDCHAR
STARTCHAR 237
ENCODING 237
SWIDTH 1000 1000
DWIDTH 3 14
BBX 3 14 0 -3
BITMAP
00
00
40
80
00
80
80
80
80
80
80
80
00
00
ENDCHAR
STARTCHAR 238
ENCODING 238
SWIDTH 1000 1000
DWIDTH 4 14
BBX 4 14 0 -3
BITMAP
00
00
40
a0
00
40
40
40
40
40
40
40
00
00
ENDCHAR
STARTCHAR 239
ENCODING 239
SWIDTH 1000 1000
DWIDTH 4 14
BBX 4 14 0 -3
BITMAP
00
00
00
a0
00
40
40
40
40
40
40
40
00
00
ENDCHAR
STARTCHAR 240
ENCODING 240
SWIDTH 1000 1000
DWIDTH 7 14
BBX 7 14 0 -3
BITMAP
00
28
10
28
08
78
88
88
88
88
88
70
00
00
ENDCHAR
STARTCHAR 241
ENCODING 241
SWIDTH 1000 1000
DWIDTH 6 14
BBX 6 14 0 -3
BITMAP
00
00
28
50
00
f0
88
88
88
88
88
88
00
00
ENDCHAR
STARTCHAR 242
ENCODING 242
SWIDTH 1000 1000
DWIDTH 6 14
BBX 6 14 0 -3
BITMAP
00
00
40
20
00
70
88
88
88
88
88
70
00
00
ENDCHAR
STARTCHAR 243
ENCODING 243
SWIDTH 1000 1000
DWIDTH 6 14
BBX 6 14 0 -3
BITMAP
00
00
10
20
00
70
88
88
88
88
88
70
00
00
ENDCHAR
STARTCHAR 244
ENCODING 244
SWIDTH 1000 1000
DWIDTH 6 14
BBX 6 14 0 -3
BITMAP
00
00
20
50
00
70
88
88
88
88
88
70
00
00
ENDCHAR
STARTCHAR 245
ENCODING 245
SWIDTH 1000 1000
DWIDTH 6 14
BBX 6 14 0 -3
BITMAP
00
00
28
50
00
70
88
88
88
88
88
70
00
00
ENDCHAR
STARTCHAR 246
ENCODING 246
SWIDTH 1000 1000
DWIDTH 6 14
BBX 6 14 0 -3
BITMAP
00
00
00
50
00
70
88
88
88
88
88
70
00
00
ENDCHAR
STARTCHAR 247
ENCODING 247
SWIDTH 1000 1000
DWIDTH 6 14
BBX 6 14 0 -3
BITMAP
00
00
00
00
00
00
20
00
f8
00
20
00
00
00
ENDCHAR
STARTCHAR 248
ENCODING 248
SWIDTH 1000 1000
DWIDTH 6 14
BBX 6 14 0 -3
BITMAP
00
00
00
00
08
70
88
98
a8
c8
88
70
80
00
ENDCHAR
STARTCHAR 249
ENCODING 249
SWIDTH 1000 1000
DWIDTH 6 14
BBX 6 14 0 -3
BITMAP
00
00
20
10
00
44
44
44
44
44
44
3c
00
00
ENDCHAR
STARTCHAR 250
ENCODING 250
SWIDTH 1000 1000
DWIDTH 6 14
BBX 6 14 0 -3
BITMAP
00
00
10
20
00
88
88
88
88
88
88
78
00
00
ENDCHAR
STARTCHAR 251
ENCODING 251
SWIDTH 1000 1000
DWIDTH 6 14
BBX 6 14 0 -3
BITMAP
00
00
20
50
00
88
88
88
88
88
88
78
00
00
ENDCHAR
STARTCHAR 252
ENCODING 252
SWIDTH 1000 1000
DWIDTH 6 14
BBX 6 14 0 -3
BITMAP
00
00
00
50
00
88
88
88
88
88
88
78
00
00
ENDCHAR
STARTCHAR 253
ENCODING 253
SWIDTH 1000 1000
DWIDTH 5 14
BBX 5 14 0 -3
BITMAP
00
10
20
00
88
88
50
50
50
20
20
20
00
00
ENDCHAR
STARTCHAR 254
ENCODING 254
SWIDTH 1000 1000
DWIDTH 6 14
BBX 6 14 0 -3
BITMAP
00
00
00
80
80
f0
88
88
88
f0
80
80
00
00
ENDCHAR
STARTCHAR 255
ENCODING 255
SWIDTH 1000 1000
DWIDTH 5 14
BBX 5 14 0 -3
BITMAP
00
00
50
00
88
88
50
50
50
20
20
20
00
00
ENDCHAR
STARTCHAR 256
ENCODING 256
SWIDTH 1000 1000
DWIDTH 8 14
BBX 8 14 0 -3
BITMAP
00
00
00
10
10
28
28
44
44
7c
82
82
00
00
ENDCHAR
STARTCHAR 257
ENCODING 257
SWIDTH 1000 1000
DWIDTH 6 14
BBX 6 14 0 -3
BITMAP
00
00
00
70
00
70
08
08
78
88
88
78
00
00
ENDCHAR
STARTCHAR 258
ENCODING 258
SWIDTH 1000 1000
DWIDTH 8 14
BBX 8 14 0 -3
BITMAP
00
38
00
10
10
28
28
44
44
7c
82
82
00
00
ENDCHAR
STARTCHAR 259
ENCODING 259
SWIDTH 1000 1000
DWIDTH 6 14
BBX 6 14 0 -3
BITMAP
00
00
48
30
00
70
08
08
78
88
88
78
00
00
ENDCHAR
STARTCHAR 260
ENCODING 260
SWIDTH 1000 1000
DWIDTH 9 14
BBX 9 14 0 -3
BITMAP
0000
0000
0000
1000
2800
2800
4400
4400
7c00
8200
8200
0300
0200
0300
ENDCHAR
STARTCHAR 261
ENCODING 261
SWIDTH 1000 1000
DWIDTH 6 14
BBX 6 14 0 -3
BITMAP
00
00
00
00
00
70
08
08
78
88
88
78
10
18
ENDCHAR
STARTCHAR 262
ENCODING 262
SWIDTH 1000 1000
DWIDTH 6 14
BBX 6 14 0 -3
BITMAP
08
10
00
78
80
80
80
80
80
80
80
78
00
00
ENDCHAR
STARTCHAR 263
ENCODING 263
SWIDTH 1000 1000
DWIDTH 5 14
BBX 5 14 0 -3
BITMAP
00
00
10
20
00
70
80
80
80
80
80
70
00
00
ENDCHAR
STARTCHAR 264
ENCODING 264
SWIDTH 1000 1000
DWIDTH 6 14
BBX 6 14 0 -3
BITMAP
20
50
00
78
80
80
80
80
80
80
80
78
00
00
ENDCHAR
STARTCHAR 265
ENCODING 265
SWIDTH 1000 1000
DWIDTH 5 14
BBX 5 14 0 -3
BITMAP
00
00
20
50
00
70
80
80
80
80
80
70
00
00
ENDCHAR
STARTCHAR 266
ENCODING 266
SWIDTH 1000 1000
DWIDTH 6 14
BBX 6 14 0 -3
BITMAP
00
20
00
78
80
80
80
80
80
80
80
78
00
00
ENDCHAR
STARTCHAR 267
ENCODING 267
SWIDTH 1000 1000
DWIDTH 5 14
BBX 5 14 0 -3
BITMAP
00
00
00
20
00
70
80
80
80
80
80
70
00
00
ENDCHAR
STARTCHAR 268
ENCODING 268
SWIDTH 1000 1000
DWIDTH 6 14
BBX 6 14 0 -3
BITMAP
50
20
00
78
80
80
80
80
80
80
80
78
00
00
ENDCHAR
STARTCHAR 269
ENCODING 269
SWIDTH 1000 1000
DWIDTH 5 14
BBX 5 14 0 -3
BITMAP
00
00
50
20
00
70
80
80
80
80
80
70
00
00
ENDCHAR
STARTCHAR 270
ENCODING 270
SWIDTH 1000 1000
DWIDTH 7 14
BBX 7 14 0 -3
BITMAP
00
20
00
f0
88
84
84
84
84
84
88
f0
00
00
ENDCHAR
STARTCHAR 271
ENCODING 271
SWIDTH 1000 1000
DWIDTH 6 14
BBX 6 14 0 -3
BITMAP
00
20
08
08
08
78
88
88
88
88
88
78
00
00
ENDCHAR
STARTCHAR 272
ENCODING 272
SWIDTH 1000 1000
DWIDTH 8 14
BBX 8 14 0 -3
BITMAP
00
00
00
78
44
42
42
f2
42
42
44
78
00
00
ENDCHAR
STARTCHAR 273
ENCODING 273
SWIDTH 1000 1000
DWIDTH 7 14
BBX 7 14 0 -3
BITMAP
00
08
3c
08
08
78
88
88
88
88
88
78
00
00
ENDCHAR
STARTCHAR 274
ENCODING 274
SWIDTH 1000 1000
DWIDTH 6 14
BBX 6 14 0 -3
BITMAP
00
60
00
f8
80
80
80
f8
80
80
80
f8
00
00
ENDCHAR
STARTCHAR 275
ENCODING 275
SWIDTH 1000 1000
DWIDTH 6 14
BBX 6 14 0 -3
BITMAP
00
00
00
70
00
70
88
88
f8
80
80
78
00
00
ENDCHAR
STARTCHAR 276
ENCODING 276
SWIDTH 1000 1000
DWIDTH 6 14
BBX 6 14 0 -3
BITMAP
48
30
00
f8
80
80
80
f8
80
80
80
f8
00
00
ENDCHAR
STARTCHAR 277
ENCODING 277
SWIDTH 1000 1000
DWIDTH 6 14
BBX 6 14 0 -3
BITMAP
00
00
48
30
00
70
88
88
f8
80
80
78
00
00
ENDCHAR
STARTCHAR 278
ENCODING 278
SWIDTH 1000 1000
DWIDTH 6 14
BBX 6 14 0 -3
BITMAP
00
f8
80
80
80
f8
80
80
80
f8
00
00
00
00
ENDCHAR
STARTCHAR 279
ENCODING 279
SWIDTH 1000 1000
DWIDTH 6 14
BBX 6 14 0 -3
BITMAP
00
00
00
20
00
70
88
88
f8
80
80
78
00
00
ENDCHAR
STARTCHAR 280
ENCODING 280
SWIDTH 1000 1000
DWIDTH 6 14
BBX 6 14 0 -3
BITMAP
00
00
00
f8
80
80
80
f8
80
80
80
f8
10
18
ENDCHAR
STARTCHAR 281
ENCODING 281
SWIDTH 1000 1000
DWIDTH 6 14
BBX 6 14 0 -3
BITMAP
00
00
00
00
00
70
88
88
f8
80
80
78
10
18
ENDCHAR
STARTCHAR 282
ENCODING 282
SWIDTH 1000 1000
DWIDTH 6 14
BBX 6 14 0 -3
BITMAP
00
30
00
f8
80
80
80
f8
80
80
80
f8
00
00
ENDCHAR
STARTCHAR 283
ENCODING 283
SWIDTH 1000 1000
DWIDTH 6 14
BBX 6 14 0 -3
BITMAP
00
00
48
30
00
70
88
88
f8
80
80
78
00
00
ENDCHAR
STARTCHAR 284
ENCODING 284
SWIDTH 1000 1000
DWIDTH 6 14
BBX 6 14 0 -3
BITMAP
00
50
00
78
80
80
80
98
88
88
88
78
00
00
ENDCHAR
STARTCHAR 285
ENCODING 285
SWIDTH 1000 1000
DWIDTH 6 14
BBX 6 14 0 -3
BITMAP
00
00
20
50
00
78
88
88
88
88
88
78
08
78
ENDCHAR
STARTCHAR 286
ENCODING 286
SWIDTH 1000 1000
DWIDTH 6 14
BBX 6 14 0 -3
BITMAP
00
30
00
78
80
80
80
98
88
88
88
78
00
00
ENDCHAR
STARTCHAR 287
ENCODING 287
SWIDTH 1000 1000
DWIDTH 6 14
BBX 6 14 0 -3
BITMAP
00
00
48
30
00
78
88
88
88
88
88
78
08
78
ENDCHAR
STARTCHAR 288
ENCODING 288
SWIDTH 1000 1000
DWIDTH 6 14
BBX 6 14 0 -3
BITMAP
00
20
00
78
80
80
80
98
88
88
88
78
00
00
ENDCHAR
STARTCHAR 289
ENCODING 289
SWIDTH 1000 1000
DWIDTH 6 14
BBX 6 14 0 -3
BITMAP
00
00
00
20
00
78
88
88
88
88
88
78
08
78
ENDCHAR
STARTCHAR 290
ENCODING 290
SWIDTH 1000 1000
DWIDTH 6 14
BBX 6 14 0 -3
BITMAP
40
60
00
78
80
80
80
98
88
88
88
78
00
00
ENDCHAR
STARTCHAR 291
ENCODING 291
SWIDTH 1000 1000
DWIDTH 6 14
BBX 6 14 0 -3
BITMAP
00
00
40
60
00
78
88
88
88
88
88
78
08
78
ENDCHAR
STARTCHAR 292
ENCODING 292
SWIDTH 1000 1000
DWIDTH 6 14
BBX 6 14 0 -3
BITMAP
00
50
00
88
88
88
88
f8
88
88
88
88
00
00
ENDCHAR
STARTCHAR 293
ENCODING 293
SWIDTH 1000 1000
DWIDTH 6 14
BBX 6 14 0 -3
BITMAP
00
00
80
80
80
f0
88
88
88
88
88
88
00
00
ENDCHAR
STARTCHAR 294
ENCODING 294
SWIDTH 1000 1000
DWIDTH 8 14
BBX 8 14 0 -3
BITMAP
00
00
00
44
fe
44
44
7c
44
44
44
44
00
00
ENDCHAR
STARTCHAR 295
ENCODING 295
SWIDTH 1000 1000
DWIDTH 7 14
BBX 7 14 0 -3
BITMAP
00
00
40
f0
40
78
44
44
44
44
44
44
00
00
ENDCHAR
STARTCHAR 296
ENCODING 296
SWIDTH 1000 1000
DWIDTH 4 14
BBX 4 14 0 -3
BITMAP
00
a0
00
40
40
40
40
40
40
40
40
40
00
00
ENDCHAR
STARTCHAR 297
ENCODING 297
SWIDTH 1000 1000
DWIDTH 5 14
BBX 5 14 0 -3
BITMAP
00
00
00
50
a0
00
20
20
20
20
20
20
00
00
ENDCHAR
STARTCHAR 298
ENCODING 298
SWIDTH 1000 1000
DWIDTH 4 14
BBX 4 14 0 -3
BITMAP
00
00
e0
00
40
40
40
40
40
40
40
40
00
00
ENDCHAR
STARTCHAR 299
ENCODING 299
SWIDTH 1000 1000
DWIDTH 4 14
BBX 4 14 0 -3
BITMAP
00
00
00
e0
00
40
40
40
40
40
40
40
00
00
ENDCHAR
STARTCHAR 300
ENCODING 300
SWIDTH 1000 1000
DWIDTH 5 14
BBX 5 14 0 -3
BITMAP
00
00
60
00
40
40
40
40
40
40
40
40
00
00
ENDCHAR
STARTCHAR 301
ENCODING 301
SWIDTH 1000 1000
DWIDTH 5 14
BBX 5 14 0 -3
BITMAP
00
00
90
60
00
40
40
40
40
40
40
40
00
00
ENDCHAR
STARTCHAR 302
ENCODING 302
SWIDTH 1000 1000
DWIDTH 3 14
BBX 3 14 0 -3
BITMAP
00
00
00
00
80
80
80
80
80
80
80
c0
80
c0
ENDCHAR
STARTCHAR 303
ENCODING 303
SWIDTH 1000 1000
DWIDTH 3 14
BBX 3 14 0 -3
BITMAP
00
00
00
00
80
00
80
80
80
80
80
c0
80
c0
ENDCHAR
STARTCHAR 304
ENCODING 304
SWIDTH 1000 1000
DWIDTH 2 14
BBX 2 14 0 -3
BITMAP
00
00
80
00
80
80
80
80
80
80
80
80
00
00
ENDCHAR
STARTCHAR 305
ENCODING 305
SWIDTH 1000 1000
DWIDTH 2 14
BBX 2 14 0 -3
BITMAP
00
00
00
80
80
80
80
80
80
80
80
80
00
00
ENDCHAR
STARTCHAR 306
ENCODING 306
SWIDTH 1000 1000
DWIDTH 6 14
BBX 6 14 0 -3
BITMAP
00
00
00
88
88
88
88
88
88
88
88
b0
00
00
ENDCHAR
STARTCHAR 307
ENCODING 307
SWIDTH 1000 1000
DWIDTH 5 14
BBX 5 14 0 -3
BITMAP
00
00
00
90
00
90
90
90
90
90
90
90
20
00
ENDCHAR
STARTCHAR 308
ENCODING 308
SWIDTH 1000 1000
DWIDTH 5 14
BBX 5 14 0 -3
BITMAP
00
50
00
20
20
20
20
20
20
20
20
c0
00
00
ENDCHAR
STARTCHAR 309
ENCODING 309
SWIDTH 1000 1000
DWIDTH 4 14
BBX 4 14 0 -3
BITMAP
00
40
a0
00
40
40
40
40
40
40
40
80
00
00
ENDCHAR
STARTCHAR 310
ENCODING 310
SWIDTH 1000 1000
DWIDTH 6 14
BBX 6 14 0 -3
BITMAP
00
00
00
88
90
90
a0
c0
a0
90
90
88
10
30
ENDCHAR
STARTCHAR 311
ENCODING 311
SWIDTH 1000 1000
DWIDTH 6 14
BBX 6 14 0 -3
BITMAP
00
00
00
80
80
88
90
a0
c0
a0
90
88
10
30
ENDCHAR
STARTCHAR 312
ENCODING 312
SWIDTH 1000 1000
DWIDTH 6 14
BBX 6 14 0 -3
BITMAP
00
00
00
80
80
88
90
a0
c0
a0
90
88
00
00
ENDCHAR
STARTCHAR 313
ENCODING 313
SWIDTH 1000 1000
DWIDTH 5 14
BBX 5 14 0 -3
BITMAP
00
40
00
80
80
80
80
80
80
80
80
f0
00
00
ENDCHAR
STARTCHAR 314
ENCODING 314
SWIDTH 1000 1000
DWIDTH 2 14
BBX 2 14 0 -3
BITMAP
00
00
80
00
80
80
80
80
80
80
80
80
00
00
ENDCHAR
STARTCHAR 315
ENCODING 315
SWIDTH 1000 1000
DWIDTH 5 14
BBX 5 14 0 -3
BITMAP
00
00
00
00
80
80
80
80
80
80
80
f0
10
30
ENDCHAR
STARTCHAR 316
ENCODING 316
SWIDTH 1000 1000
DWIDTH 3 14
BBX 3 14 0 -3
BITMAP
00
00
00
00
80
80
80
80
80
80
80
c0
40
c0
ENDCHAR
STARTCHAR 317
ENCODING 317
SWIDTH 1000 1000
DWIDTH 5 14
BBX 5 14 0 -3
BITMAP
00
00
00
80
b0
90
a0
80
80
80
80
f0
00
00
ENDCHAR
STARTCHAR 318
ENCODING 318
SWIDTH 1000 1000
DWIDTH 5 14
BBX 5 14 0 -3
BITMAP
00
00
00
00
b0
90
a0
80
80
80
80
80
00
00
ENDCHAR
STARTCHAR 319
ENCODING 319
SWIDTH 1000 1000
DWIDTH 5 14
BBX 5 14 0 -3
BITMAP
00
00
00
80
80
80
80
a0
80
80
80
f0
00
00
ENDCHAR
STARTCHAR 320
ENCODING 320
SWIDTH 1000 1000
DWIDTH 4 14
BBX 4 14 0 -3
BITMAP
00
00
00
00
80
80
80
80
a0
80
80
80
00
00
ENDCHAR
STARTCHAR 321
ENCODING 321
SWIDTH 1000 1000
DWIDTH 6 14
BBX 6 14 0 -3
BITMAP
00
00
00
40
40
40
50
60
c0
40
40
78
00
00
ENDCHAR
STARTCHAR 322
ENCODING 322
SWIDTH 1000 1000
DWIDTH 5 14
BBX 5 14 0 -3
BITMAP
00
00
00
40
40
40
50
60
c0
40
40
40
00
00
ENDCHAR
STARTCHAR 323
ENCODING 323
SWIDTH 1000 1000
DWIDTH 7 14
BBX 7 14 0 -3
BITMAP
00
00
00
84
c4
a4
a4
94
94
8c
84
84
00
00
ENDCHAR
STARTCHAR 324
ENCODING 324
SWIDTH 1000 1000
DWIDTH 6 14
BBX 6 14 0 -3
BITMAP
00
00
10
20
00
f0
88
88
88
88
88
88
00
00
ENDCHAR
STARTCHAR 325
ENCODING 325
SWIDTH 1000 1000
DWIDTH 7 14
BBX 7 14 0 -3
BITMAP
00
00
00
84
c4
a4
a4
94
94
8c
84
b4
10
30
ENDCHAR
STARTCHAR 326
ENCODING 326
SWIDTH 1000 1000
DWIDTH 6 14
BBX 6 14 0 -3
BITMAP
00
00
00
00
00
f0
88
88
88
88
88
88
10
30
ENDCHAR
STARTCHAR 327
ENCODING 327
SWIDTH 1000 1000
DWIDTH 7 14
BBX 7 14 0 -3
BITMAP
48
30
00
84
c4
a4
a4
94
94
8c
84
84
00
00
ENDCHAR
STARTCHAR 328
ENCODING 328
SWIDTH 1000 1000
DWIDTH 6 14
BBX 6 14 0 -3
BITMAP
00
00
90
60
00
f0
88
88
88
88
88
88
00
00
ENDCHAR
STARTCHAR 329
ENCODING 329
SWIDTH 1000 1000
DWIDTH 8 14
BBX 8 14 0 -3
BITMAP
00
00
c0
40
80
3c
22
22
22
22
22
22
00
00
ENDCHAR
STARTCHAR 330
ENCODING 330
SWIDTH 1000 1000
DWIDTH 7 14
BBX 7 14 0 -3
BITMAP
00
00
00
b8
c4
84
84
84
84
84
84
8c
00
00
ENDCHAR
STARTCHAR 331
ENCODING 331
SWIDTH 1000 1000
DWIDTH 6 14
BBX 6 14 0 -3
BITMAP
00
00
00
b0
c8
88
88
88
88
88
08
08
08
10
ENDCHAR
STARTCHAR 332
ENCODING 332
SWIDTH 1000 1000
DWIDTH 6 14
BBX 6 14 0 -3
BITMAP
00
00
00
70
88
88
88
88
88
88
88
70
00
00
ENDCHAR
STARTCHAR 333
ENCODING 333
SWIDTH 1000 1000
DWIDTH 6 14
BBX 6 14 0 -3
BITMAP
00
00
00
70
00
70
88
88
88
88
88
70
00
00
ENDCHAR
STARTCHAR 334
ENCODING 334
SWIDTH 1000 1000
DWIDTH 6 14
BBX 6 14 0 -3
BITMAP
48
30
00
70
88
88
88
88
88
88
88
70
00
00
ENDCHAR
STARTCHAR 335
ENCODING 335
SWIDTH 1000 1000
DWIDTH 6 14
BBX 6 14 0 -3
BITMAP
00
00
90
60
00
70
88
88
88
88
88
70
00
00
ENDCHAR
STARTCHAR 336
ENCODING 336
SWIDTH 1000 1000
DWIDTH 6 14
BBX 6 14 0 -3
BITMAP
00
50
00
70
88
88
88
88
88
88
88
70
00
00
ENDCHAR
STARTCHAR 337
ENCODING 337
SWIDTH 1000 1000
DWIDTH 6 14
BBX 6 14 0 -3
BITMAP
00
00
50
00
70
88
88
88
88
88
88
70
00
00
ENDCHAR
STARTCHAR 338
ENCODING 338
SWIDTH 1000 1000
DWIDTH 9 14
BBX 9 14 0 -3
BITMAP
0000
0000
0000
7f00
8800
8800
8800
8f00
8800
8800
8800
7f00
0000
0000
ENDCHAR
STARTCHAR 339
ENCODING 339
SWIDTH 1000 1000
DWIDTH 10 14
BBX 10 14 0 -3
BITMAP
0000
0000
0000
0000
0000
7700
8880
8880
8f80
8800
8800
7780
0000
0000
ENDCHAR
STARTCHAR 340
ENCODING 340
SWIDTH 1000 1000
DWIDTH 6 14
BBX 6 14 0 -3
BITMAP
20
40
00
f0
88
88
88
f0
88
88
88
88
00
00
ENDCHAR
STARTCHAR 341
ENCODING 341
SWIDTH 1000 1000
DWIDTH 4 14
BBX 4 14 0 -3
BITMAP
00
00
20
40
00
e0
80
80
80
80
80
80
00
00
ENDCHAR
STARTCHAR 342
ENCODING 342
SWIDTH 1000 1000
DWIDTH 6 14
BBX 6 14 0 -3
BITMAP
00
00
00
f0
88
88
88
f0
88
88
88
a8
10
30
ENDCHAR
STARTCHAR 343
ENCODING 343
SWIDTH 1000 1000
DWIDTH 5 14
BBX 5 14 0 -3
BITMAP
00
00
00
00
00
f0
80
80
80
80
80
b0
10
30
ENDCHAR
STARTCHAR 344
ENCODING 344
SWIDTH 1000 1000
DWIDTH 6 14
BBX 6 14 0 -3
BITMAP
00
30
00
f0
88
88
88
f0
88
88
88
88
00
00
ENDCHAR
STARTCHAR 345
ENCODING 345
SWIDTH 1000 1000
DWIDTH 5 14
BBX 5 14 0 -3
BITMAP
00
00
90
60
00
f0
80
80
80
80
80
80
00
00
ENDCHAR
STARTCHAR 346
ENCODING 346
SWIDTH 1000 1000
DWIDTH 6 14
BBX 6 14 0 -3
BITMAP
10
20
00
78
80
80
40
20
10
08
08
f0
00
00
ENDCHAR
STARTCHAR 347
ENCODING 347
SWIDTH 1000 1000
DWIDTH 6 14
BBX 6 14 0 -3
BITMAP
00
00
10
20
00
78
80
80
70
08
08
f0
00
00
ENDCHAR
STARTCHAR 348
ENCODING 348
SWIDTH 1000 1000
DWIDTH 6 14
BBX 6 14 0 -3
BITMAP
20
50
00
78
80
80
40
20
10
08
08
f0
00
00
ENDCHAR
STARTCHAR 349
ENCODING 349
SWIDTH 1000 1000
DWIDTH 6 14
BBX 6 14 0 -3
BITMAP
00
00
20
50
00
78
80
80
70
08
08
f0
00
00
ENDCHAR
STARTCHAR 350
ENCODING 350
SWIDTH 1000 1000
DWIDTH 6 14
BBX 6 14 0 -3
BITMAP
00
00
00
78
80
80
40
20
10
08
08
f0
20
60
ENDCHAR
STARTCHAR 351
ENCODING 351
SWIDTH 1000 1000
DWIDTH 6 14
BBX 6 14 0 -3
BITMAP
00
00
00
00
00
78
80
80
70
08
08
f0
20
60
ENDCHAR
STARTCHAR 352
ENCODING 352
SWIDTH 1000 1000
DWIDTH 7 14
BBX 7 14 0 -3
BITMAP
28
10
00
3c
42
42
40
3c
02
42
42
3c
00
00
ENDCHAR
STARTCHAR 353
ENCODING 353
SWIDTH 1000 1000
DWIDTH 6 14
BBX 6 14 0 -3
BITMAP
00
00
28
10
00
38
44
40
38
04
44
38
00
00
ENDCHAR
STARTCHAR 354
ENCODING 354
SWIDTH 1000 1000
DWIDTH 3 14
BBX 3 14 0 -3
BITMAP
00
00
00
00
80
80
80
80
80
80
80
80
40
c0
ENDCHAR
STARTCHAR 355
ENCODING 355
SWIDTH 1000 1000
DWIDTH 5 14
BBX 5 14 0 -3
BITMAP
00
00
00
00
40
e0
40
40
40
40
40
30
20
40
ENDCHAR
STARTCHAR 356
ENCODING 356
SWIDTH 1000 1000
DWIDTH 8 14
BBX 8 14 0 -3
BITMAP
08
10
00
fe
10
10
10
10
10
10
10
10
00
00
ENDCHAR
STARTCHAR 357
ENCODING 357
SWIDTH 1000 1000
DWIDTH 5 14
BBX 5 14 0 -3
BITMAP
20
40
00
40
40
f0
40
40
40
40
40
30
00
00
ENDCHAR
STARTCHAR 358
ENCODING 358
SWIDTH 1000 1000
DWIDTH 8 14
BBX 8 14 0 -3
BITMAP
00
00
00
fe
10
10
10
10
10
7c
10
10
00
00
ENDCHAR
STARTCHAR 359
ENCODING 359
SWIDTH 1000 1000
DWIDTH 5 14
BBX 5 14 0 -3
BITMAP
00
00
00
40
40
f0
40
40
f0
40
40
30
00
00
ENDCHAR
STARTCHAR 360
ENCODING 360
SWIDTH 1000 1000
DWIDTH 7 14
BBX 7 14 0 -3
BITMAP
00
28
50
00
84
84
84
84
84
84
84
78
00
00
ENDCHAR
STARTCHAR 361
ENCODING 361
SWIDTH 1000 1000
DWIDTH 6 14
BBX 6 14 0 -3
BITMAP
00
00
28
50
00
88
88
88
88
88
88
78
00
00
ENDCHAR
STARTCHAR 362
ENCODING 362
SWIDTH 1000 1000
DWIDTH 7 14
BBX 7 14 0 -3
BITMAP
00
00
78
00
84
84
84
84
84
84
84
78
00
00
ENDCHAR
STARTCHAR 363
ENCODING 363
SWIDTH 1000 1000
DWIDTH 6 14
BBX 6 14 0 -3
BITMAP
00
00
00
70
00
88
88
88
88
88
88
78
00
00
ENDCHAR
STARTCHAR 364
ENCODING 364
SWIDTH 1000 1000
DWIDTH 7 14
BBX 7 14 0 -3
BITMAP
00
48
30
00
84
84
84
84
84
84
84
78
00
00
ENDCHAR
STARTCHAR 365
ENCODING 365
SWIDTH 1000 1000
DWIDTH 6 14
BBX 6 14 0 -3
BITMAP
00
00
90
60
00
88
88
88
88
88
88
78
00
00
ENDCHAR
STARTCHAR 366
ENCODING 366
SWIDTH 1000 1000
DWIDTH 7 14
BBX 7 14 0 -3
BITMAP
84
48
30
84
84
84
84
84
84
84
84
78
00
00
ENDCHAR
STARTCHAR 367
ENCODING 367
SWIDTH 1000 1000
DWIDTH 6 14
BBX 6 14 0 -3
BITMAP
00
90
90
60
00
88
88
88
88
88
88
78
00
00
ENDCHAR
STARTCHAR 368
ENCODING 368
SWIDTH 1000 1000
DWIDTH 7 14
BBX 7 14 0 -3
BITMAP
00
28
50
00
84
84
84
84
84
84
84
84
78
00
ENDCHAR
STARTCHAR 369
ENCODING 369
SWIDTH 1000 1000
DWIDTH 6 14
BBX 6 14 0 -3
BITMAP
00
00
28
50
00
88
88
88
88
88
88
78
00
00
ENDCHAR
STARTCHAR 370
ENCODING 370
SWIDTH 1000 1000
DWIDTH 7 14
BBX 7 14 0 -3
BITMAP
00
00
00
84
84
84
84
84
84
84
84
78
20
30
ENDCHAR
STARTCHAR 371
ENCODING 371
SWIDTH 1000 1000
DWIDTH 6 14
BBX 6 14 0 -3
BITMAP
00
00
00
00
00
88
88
88
88
88
88
78
10
18
ENDCHAR
STARTCHAR 372
ENCODING 372
SWIDTH 1000 1000
DWIDTH 10 14
BBX 10 14 0 -3
BITMAP
0800
1400
0000
8880
8880
8880
8880
5500
5500
5500
2200
2200
0000
0000
ENDCHAR
STARTCHAR 373
ENCODING 373
SWIDTH 1000 1000
DWIDTH 10 14
BBX 10 14 0 -3
BITMAP
0000
0000
0800
1400
0000
8880
8880
8880
5500
5500
2200
2200
0000
0000
ENDCHAR
STARTCHAR 374
ENCODING 374
SWIDTH 1000 1000
DWIDTH 8 14
BBX 8 14 0 -3
BITMAP
00
00
28
82
44
44
28
10
10
10
10
10
00
00
ENDCHAR
STARTCHAR 375
ENCODING 375
SWIDTH 1000 1000
DWIDTH 6 14
BBX 6 14 0 -3
BITMAP
00
00
20
50
00
88
88
50
50
20
20
20
00
00
ENDCHAR
STARTCHAR 376
ENCODING 376
SWIDTH 1000 1000
DWIDTH 8 14
BBX 8 14 0 -3
BITMAP
00
00
00
82
44
44
28
10
10
10
10
10
00
00
ENDCHAR
STARTCHAR 377
ENCODING 377
SWIDTH 1000 1000
DWIDTH 7 14
BBX 7 14 0 -3
BITMAP
00
00
00
f8
08
10
10
20
40
40
80
fc
00
00
ENDCHAR
STARTCHAR 378
ENCODING 378
SWIDTH 1000 1000
DWIDTH 6 14
BBX 6 14 0 -3
BITMAP
00
00
10
20
00
f8
08
10
20
40
80
f8
00
00
ENDCHAR
STARTCHAR 379
ENCODING 379
SWIDTH 1000 1000
DWIDTH 7 14
BBX 7 14 0 -3
BITMAP
00
00
00
f8
08
10
10
20
40
40
80
fc
00
00
ENDCHAR
STARTCHAR 380
ENCODING 380
SWIDTH 1000 1000
DWIDTH 7 14
BBX 7 14 0 -3
BITMAP
00
00
00
20
00
f8
08
10
20
40
80
fc
00
00
ENDCHAR
STARTCHAR 381
ENCODING 381
SWIDTH 1000 1000
DWIDTH 6 14
BBX 6 14 0 -3
BITMAP
50
20
00
f8
08
10
10
20
40
40
80
f8
00
00
ENDCHAR
STARTCHAR 382
ENCODING 382
SWIDTH 1000 1000
DWIDTH 6 14
BBX 6 14 0 -3
BITMAP
00
00
50
20
00
f8
08
10
20
40
80
f8
00
00
ENDCHAR
STARTCHAR 383
ENCODING 383
SWIDTH 1000 1000
DWIDTH 4 14
BBX 4 14 0 -3
BITMAP
00
60
80
80
80
80
80
80
80
80
00
00
00
00
ENDCHAR
STARTCHAR 384
ENCODING 384
SWIDTH 1000 1000
DWIDTH 5 14
BBX 5 14 0 -3
BITMAP
00
00
00
00
00
00
00
00
00
00
00
00
00
00
ENDCHAR
STARTCHAR 399
ENCODING 399
SWIDTH 1000 1000
DWIDTH 5 14
BBX 5 14 0 -3
BITMAP
00
00
00
f0
10
10
10
f0
10
10
10
f0
00
00
ENDCHAR
STARTCHAR 402
ENCODING 402
SWIDTH 1000 1000
DWIDTH 5 14
BBX 5 14 0 -3
BITMAP
00
00
30
40
40
f0
40
40
40
40
40
40
00
00
ENDCHAR
STARTCHAR 403
ENCODING 403
SWIDTH 1000 1000
DWIDTH 8 14
BBX 8 14 0 -3
BITMAP
00
00
00
00
00
00
00
00
00
00
00
00
00
00
ENDCHAR
STARTCHAR 416
ENCODING 416
SWIDTH 1000 1000
DWIDTH 8 14
BBX 8 14 0 -3
BITMAP
00
06
02
74
88
88
88
88
88
88
88
70
00
00
ENDCHAR
STARTCHAR 417
ENCODING 417
SWIDTH 1000 1000
DWIDTH 8 14
BBX 8 14 0 -3
BITMAP
00
00
00
06
02
74
88
88
88
88
88
70
00
00
ENDCHAR
STARTCHAR 418
ENCODING 418
SWIDTH 1000 1000
DWIDTH 9 14
BBX 9 14 0 -3
BITMAP
0000
0000
0000
0000
0000
0000
0000
0000
0000
0000
0000
0000
0000
0000
ENDCHAR
STARTCHAR 419
ENCODING 419
SWIDTH 1000 1000
DWIDTH 8 14
BBX 8 14 0 -3
BITMAP
00
00
00
00
00
00
00
00
00
00
00
00
00
00
ENDCHAR
STARTCHAR 420
ENCODING 420
SWIDTH 1000 1000
DWIDTH 8 14
BBX 8 14 0 -3
BITMAP
00
00
00
00
00
00
00
00
00
00
00
00
00
00
ENDCHAR
STARTCHAR 421
ENCODING 421
SWIDTH 1000 1000
DWIDTH 6 14
BBX 6 14 0 -3
BITMAP
00
00
00
00
00
00
00
00
00
00
00
00
00
00
ENDCHAR
STARTCHAR 431
ENCODING 431
SWIDTH 1000 1000
DWIDTH 9 14
BBX 9 14 0 -3
BITMAP
0100
8600
8400
8400
8400
8400
8400
8400
8400
7800
0000
0000
0000
0000
ENDCHAR
STARTCHAR 432
ENCODING 432
SWIDTH 1000 1000
DWIDTH 8 14
BBX 8 14 0 -3
BITMAP
00
06
02
8c
88
88
88
88
88
78
00
00
00
00
ENDCHAR
STARTCHAR 461
ENCODING 461
SWIDTH 1000 1000
DWIDTH 8 14
BBX 8 14 0 -3
BITMAP
00
10
00
10
10
28
28
44
44
7c
82
82
00
00
ENDCHAR
STARTCHAR 462
ENCODING 462
SWIDTH 1000 1000
DWIDTH 6 14
BBX 6 14 0 -3
BITMAP
00
00
50
20
00
70
08
08
78
88
88
78
00
00
ENDCHAR
STARTCHAR 463
ENCODING 463
SWIDTH 1000 1000
DWIDTH 4 14
BBX 4 14 0 -3
BITMAP
00
00
40
00
e0
40
40
40
40
40
40
e0
00
00
ENDCHAR
STARTCHAR 464
ENCODING 464
SWIDTH 1000 1000
DWIDTH 4 14
BBX 4 14 0 -3
BITMAP
00
00
a0
40
00
40
40
40
40
40
40
40
00
00
ENDCHAR
STARTCHAR 465
ENCODING 465
SWIDTH 1000 1000
DWIDTH 7 14
BBX 7 14 0 -3
BITMAP
00
20
00
78
84
84
84
84
84
84
84
78
00
00
ENDCHAR
STARTCHAR 466
ENCODING 466
SWIDTH 1000 1000
DWIDTH 6 14
BBX 6 14 0 -3
BITMAP
00
00
20
00
70
88
88
88
88
88
88
70
00
00
ENDCHAR
STARTCHAR 467
ENCODING 467
SWIDTH 1000 1000
DWIDTH 7 14
BBX 7 14 0 -3
BITMAP
00
50
20
00
84
84
84
84
84
84
84
78
00
00
ENDCHAR
STARTCHAR 468
ENCODING 468
SWIDTH 1000 1000
DWIDTH 6 14
BBX 6 14 0 -3
BITMAP
00
00
50
20
00
88
88
88
88
88
88
78
00
00
ENDCHAR
STARTCHAR 469
ENCODING 469
SWIDTH 1000 1000
DWIDTH 7 14
BBX 7 14 0 -3
BITMAP
00
00
48
00
84
84
84
84
84
84
84
78
00
00
ENDCHAR
STARTCHAR 470
ENCODING 470
SWIDTH 1000 1000
DWIDTH 6 14
BBX 6 14 0 -3
BITMAP
00
00
00
50
00
88
88
88
88
88
88
78
00
00
ENDCHAR
STARTCHAR 471
ENCODING 471
SWIDTH 1000 1000
DWIDTH 7 14
BBX 7 14 0 -3
BITMAP
00
00
48
00
84
84
84
84
84
84
84
78
00
00
ENDCHAR
STARTCHAR 472
ENCODING 472
SWIDTH 1000 1000
DWIDTH 6 14
BBX 6 14 0 -3
BITMAP
00
00
00
50
00
88
88
88
88
88
88
78
00
00
ENDCHAR
STARTCHAR 473
ENCODING 473
SWIDTH 1000 1000
DWIDTH 7 14
BBX 7 14 0 -3
BITMAP
20
00
50
00
84
84
84
84
84
84
84
78
00
00
ENDCHAR
STARTCHAR 474
ENCODING 474
SWIDTH 1000 1000
DWIDTH 6 14
BBX 6 14 0 -3
BITMAP
00
20
00
50
00
88
88
88
88
88
88
78
00
00
ENDCHAR
STARTCHAR 475
ENCODING 475
SWIDTH 1000 1000
DWIDTH 7 14
BBX 7 14 0 -3
BITMAP
00
00
48
00
84
84
84
84
84
84
84
78
00
00
ENDCHAR
STARTCHAR 476
ENCODING 476
SWIDTH 1000 1000
DWIDTH 6 14
BBX 6 14 0 -3
BITMAP
00
00
00
50
00
88
88
88
88
88
88
78
00
00
ENDCHAR
STARTCHAR 496
ENCODING 496
SWIDTH 1000 1000
DWIDTH 8 14
BBX 8 14 0 -3
BITMAP
00
00
00
00
00
00
00
00
00
00
00
00
00
00
ENDCHAR
STARTCHAR 506
ENCODING 506
SWIDTH 1000 1000
DWIDTH 8 14
BBX 8 14 0 -3
BITMAP
48
30
00
10
10
28
28
44
44
7c
82
82
00
00
ENDCHAR
STARTCHAR 507
ENCODING 507
SWIDTH 1000 1000
DWIDTH 6 14
BBX 6 14 0 -3
BITMAP
00
20
50
20
00
70
08
08
78
88
88
78
00
00
ENDCHAR
STARTCHAR 508
ENCODING 508
SWIDTH 1000 1000
DWIDTH 10 14
BBX 10 14 0 -3
BITMAP
0000
0000
0000
1f80
1800
2800
2800
4f80
4800
7800
8800
8f80
0000
0000
ENDCHAR
STARTCHAR 509
ENCODING 509
SWIDTH 1000 1000
DWIDTH 10 14
BBX 10 14 0 -3
BITMAP
0000
0000
0800
1000
0000
7700
0880
0880
7f80
8800
8800
7f80
0000
0000
ENDCHAR
STARTCHAR 510
ENCODING 510
SWIDTH 1000 1000
DWIDTH 7 14
BBX 7 14 0 -3
BITMAP
00
04
78
84
8c
8c
94
a4
c4
c4
84
78
80
00
ENDCHAR
STARTCHAR 511
ENCODING 511
SWIDTH 1000 1000
DWIDTH 6 14
BBX 6 14 0 -3
BITMAP
00
00
00
00
08
70
88
98
a8
c8
88
70
80
00
ENDCHAR
STARTCHAR 710
ENCODING 710
SWIDTH 1000 1000
DWIDTH 4 14
BBX 4 14 0 -3
BITMAP
00
00
00
00
00
00
20
50
00
00
00
00
00
00
ENDCHAR
STARTCHAR 732
ENCODING 732
SWIDTH 1000 1000
DWIDTH 4 14
BBX 4 14 0 -3
BITMAP
00
00
00
00
00
00
50
a0
00
00
00
00
00
00
ENDCHAR
STARTCHAR 768
ENCODING 768
SWIDTH 1000 1000
DWIDTH 4 14
BBX 4 14 0 -2
BITMAP
40
20
00
00
00
00
00
00
00
00
00
00
00
00
ENDCHAR
STARTCHAR 769
ENCODING 769
SWIDTH 1000 1000
DWIDTH 4 14
BBX 4 14 0 -2
BITMAP
20
40
00
00
00
00
00
00
00
00
00
00
00
00
ENDCHAR
STARTCHAR 770
ENCODING 770
SWIDTH 1000 1000
DWIDTH 5 14
BBX 5 14 0 -2
BITMAP
20
50
00
00
00
00
00
00
00
00
00
00
00
00
ENDCHAR
STARTCHAR 771
ENCODING 771
SWIDTH 1000 1000
DWIDTH 6 14
BBX 6 14 0 -2
BITMAP
28
50
00
00
00
00
00
00
00
00
00
00
00
00
ENDCHAR
STARTCHAR 772
ENCODING 772
SWIDTH 1000 1000
DWIDTH 5 14
BBX 5 14 0 -2
BITMAP
00
70
00
00
00
00
00
00
00
00
00
00
00
00
ENDCHAR
STARTCHAR 773
ENCODING 773
SWIDTH 1000 1000
DWIDTH 7 14
BBX 7 14 0 -2
BITMAP
00
7c
00
00
00
00
00
00
00
00
00
00
00
00
ENDCHAR
STARTCHAR 774
ENCODING 774
SWIDTH 1000 1000
DWIDTH 5 14
BBX 5 14 0 -2
BITMAP
50
20
00
00
00
00
00
00
00
00
00
00
00
00
ENDCHAR
STARTCHAR 775
ENCODING 775
SWIDTH 1000 1000
DWIDTH 3 14
BBX 3 14 0 -2
BITMAP
00
40
00
00
00
00
00
00
00
00
00
00
00
00
ENDCHAR
STARTCHAR 776
ENCODING 776
SWIDTH 1000 1000
DWIDTH 5 14
BBX 5 14 0 -2
BITMAP
00
50
00
00
00
00
00
00
00
00
00
00
00
00
ENDCHAR
STARTCHAR 777
ENCODING 777
SWIDTH 1000 1000
DWIDTH 4 14
BBX 4 14 0 -2
BITMAP
40
20
40
00
00
00
00
00
00
00
00
00
00
00
ENDCHAR
STARTCHAR 778
ENCODING 778
SWIDTH 1000 1000
DWIDTH 5 14
BBX 5 14 0 -2
BITMAP
20
50
20
00
00
00
00
00
00
00
00
00
00
00
ENDCHAR
STARTCHAR 779
ENCODING 779
SWIDTH 1000 1000
DWIDTH 7 14
BBX 7 14 0 -2
BITMAP
24
48
00
00
00
00
00
00
00
00
00
00
00
00
ENDCHAR
STARTCHAR 780
ENCODING 780
SWIDTH 1000 1000
DWIDTH 5 14
BBX 5 14 0 -2
BITMAP
50
20
00
00
00
00
00
00
00
00
00
00
00
00
ENDCHAR
STARTCHAR 781
ENCODING 781
SWIDTH 1000 1000
DWIDTH 3 14
BBX 3 14 0 -2
BITMAP
40
40
00
00
00
00
00
00
00
00
00
00
00
00
ENDCHAR
STARTCHAR 782
ENCODING 782
SWIDTH 1000 1000
DWIDTH 5 14
BBX 5 14 0 -2
BITMAP
00
50
00
00
00
00
00
00
00
00
00
00
00
00
ENDCHAR
STARTCHAR 783
ENCODING 783
SWIDTH 1000 1000
DWIDTH 7 14
BBX 7 14 0 -2
BITMAP
48
24
00
00
00
00
00
00
00
00
00
00
00
00
ENDCHAR
STARTCHAR 784
ENCODING 784
SWIDTH 1000 1000
DWIDTH 7 14
BBX 7 14 0 -2
BITMAP
10
44
38
00
00
00
00
00
00
00
00
00
00
00
ENDCHAR
STARTCHAR 785
ENCODING 785
SWIDTH 1000 1000
DWIDTH 6 14
BBX 6 14 0 -2
BITMAP
30
48
00
00
00
00
00
00
00
00
00
00
00
00
ENDCHAR
STARTCHAR 786
ENCODING 786
SWIDTH 1000 1000
DWIDTH 4 14
BBX 4 14 0 -2
BITMAP
20
40
20
00
00
00
00
00
00
00
00
00
00
00
ENDCHAR
STARTCHAR 787
ENCODING 787
SWIDTH 1000 1000
DWIDTH 4 14
BBX 4 14 0 -2
BITMAP
60
20
40
00
00
00
00
00
00
00
00
00
00
00
ENDCHAR
STARTCHAR 788
ENCODING 788
SWIDTH 1000 1000
DWIDTH 4 14
BBX 4 14 0 -2
BITMAP
60
40
20
00
00
00
00
00
00
00
00
00
00
00
ENDCHAR
STARTCHAR 789
ENCODING 789
SWIDTH 1000 1000
DWIDTH 4 14
BBX 4 14 0 -2
BITMAP
60
20
40
00
00
00
00
00
00
00
00
00
00
00
ENDCHAR
STARTCHAR 790
ENCODING 790
SWIDTH 1000 1000
DWIDTH 4 14
BBX 4 14 0 -2
BITMAP
00
00
00
00
00
00
00
00
00
00
40
20
00
00
ENDCHAR
STARTCHAR 791
ENCODING 791
SWIDTH 1000 1000
DWIDTH 4 14
BBX 4 14 0 -2
BITMAP
00
00
00
00
00
00
00
00
00
00
20
40
00
00
ENDCHAR
STARTCHAR 792
ENCODING 792
SWIDTH 1000 1000
DWIDTH 4 14
BBX 4 14 0 -2
BITMAP
00
00
00
00
00
00
00
00
00
20
60
20
00
00
ENDCHAR
STARTCHAR 793
ENCODING 793
SWIDTH 1000 1000
DWIDTH 4 14
BBX 4 14 0 -2
BITMAP
00
00
00
00
00
00
00
00
00
40
60
40
00
00
ENDCHAR
STARTCHAR 794
ENCODING 794
SWIDTH 1000 1000
DWIDTH 5 14
BBX 5 14 0 -2
BITMAP
70
10
00
00
00
00
00
00
00
00
00
00
00
00
ENDCHAR
STARTCHAR 795
ENCODING 795
SWIDTH 1000 1000
DWIDTH 4 14
BBX 4 14 0 -2
BITMAP
60
20
40
00
00
00
00
00
00
00
00
00
00
00
ENDCHAR
STARTCHAR 796
ENCODING 796
SWIDTH 1000 1000
DWIDTH 4 14
BBX 4 14 0 -2
BITMAP
00
00
00
00
00
00
00
00
20
40
40
20
00
00
ENDCHAR
STARTCHAR 797
ENCODING 797
SWIDTH 1000 1000
DWIDTH 5 14
BBX 5 14 0 -2
BITMAP
00
00
00
00
00
00
00
00
00
00
20
70
00
00
ENDCHAR
STARTCHAR 798
ENCODING 798
SWIDTH 1000 1000
DWIDTH 5 14
BBX 5 14 0 -2
BITMAP
00
00
00
00
00
00
00
00
00
00
00
70
20
00
ENDCHAR
STARTCHAR 799
ENCODING 799
SWIDTH 1000 1000
DWIDTH 5 14
BBX 5 14 0 -2
BITMAP
00
00
00
00
00
00
00
20
70
20
00
00
00
00
ENDCHAR
STARTCHAR 800
ENCODING 800
SWIDTH 1000 1000
DWIDTH 5 14
BBX 5 14 0 -2
BITMAP
00
00
00
00
00
00
00
00
00
00
70
00
00
00
ENDCHAR
STARTCHAR 801
ENCODING 801
SWIDTH 1000 1000
DWIDTH 4 14
BBX 4 14 0 -2
BITMAP
00
00
00
00
00
00
00
00
20
20
40
00
00
00
ENDCHAR
STARTCHAR 802
ENCODING 802
SWIDTH 1000 1000
DWIDTH 4 14
BBX 4 14 0 -2
BITMAP
00
00
00
00
00
00
00
00
00
40
40
20
00
00
ENDCHAR
STARTCHAR 803
ENCODING 803
SWIDTH 1000 1000
DWIDTH 5 14
BBX 5 14 0 -2
BITMAP
00
00
00
00
00
00
00
00
70
00
70
00
00
00
ENDCHAR
STARTCHAR 804
ENCODING 804
SWIDTH 1000 1000
DWIDTH 7 14
BBX 7 14 0 -2
BITMAP
00
00
00
00
00
00
00
00
00
00
24
48
00
00
ENDCHAR
STARTCHAR 805
ENCODING 805
SWIDTH 1000 1000
DWIDTH 6 14
BBX 6 14 0 -2
BITMAP
00
00
00
00
00
00
00
00
00
78
00
00
00
00
ENDCHAR
STARTCHAR 806
ENCODING 806
SWIDTH 1000 1000
DWIDTH 8 14
BBX 8 14 0 -2
BITMAP
00
00
00
00
00
00
00
00
00
7e
00
00
00
00
ENDCHAR
STARTCHAR 807
ENCODING 807
SWIDTH 1000 1000
DWIDTH 8 14
BBX 8 14 0 -2
BITMAP
00
00
00
00
00
02
04
08
10
20
40
00
00
00
ENDCHAR
STARTCHAR 808
ENCODING 808
SWIDTH 1000 1000
DWIDTH 6 14
BBX 6 14 0 -2
BITMAP
00
00
00
00
08
08
10
10
20
20
40
40
00
00
ENDCHAR
STARTCHAR 809
ENCODING 809
SWIDTH 1000 1000
DWIDTH 4 14
BBX 4 14 0 -2
BITMAP
00
00
00
00
00
00
00
00
00
40
20
40
00
00
ENDCHAR
STARTCHAR 894
ENCODING 894
SWIDTH 1000 1000
DWIDTH 4 14
BBX 4 14 0 -2
BITMAP
00
00
00
00
00
00
00
00
20
00
20
40
00
00
ENDCHAR
STARTCHAR 902
ENCODING 902
SWIDTH 1000 1000
DWIDTH 8 14
BBX 8 14 0 -3
BITMAP
00
c0
c0
90
10
28
28
44
44
44
82
82
00
00
ENDCHAR
STARTCHAR 904
ENCODING 904
SWIDTH 1000 1000
DWIDTH 8 14
BBX 8 14 0 -3
BITMAP
00
c0
c0
9e
10
10
10
1e
10
10
10
1e
00
00
ENDCHAR
STARTCHAR 905
ENCODING 905
SWIDTH 1000 1000
DWIDTH 9 14
BBX 9 14 0 -3
BITMAP
0000
0000
0000
d100
d100
9100
1100
1f00
1100
1100
1100
1100
0000
0000
ENDCHAR
STARTCHAR 906
ENCODING 906
SWIDTH 1000 1000
DWIDTH 7 14
BBX 7 14 0 -3
BITMAP
00
00
c0
c0
9c
08
08
08
08
08
08
1c
00
00
ENDCHAR
STARTCHAR 908
ENCODING 908
SWIDTH 1000 1000
DWIDTH 9 14
BBX 9 14 0 -3
BITMAP
0000
0000
0000
9e00
a100
a100
2100
2100
2100
2100
2100
1e00
0000
0000
ENDCHAR
STARTCHAR 910
ENCODING 910
SWIDTH 1000 1000
DWIDTH 9 14
BBX 9 14 0 -3
BITMAP
0000
0000
c000
d100
9100
1100
0a00
0a00
0400
0400
0400
0400
0000
0000
ENDCHAR
STARTCHAR 911
ENCODING 911
SWIDTH 1000 1000
DWIDTH 10 14
BBX 10 14 0 -3
BITMAP
0000
0000
0000
ce00
d100
a080
2080
2080
2080
1100
0a00
3b80
0000
0000
ENDCHAR
STARTCHAR 912
ENCODING 912
SWIDTH 1000 1000
DWIDTH 5 14
BBX 5 14 0 -3
BITMAP
00
00
60
d0
00
60
20
20
20
20
20
30
00
00
ENDCHAR
STARTCHAR 913
ENCODING 913
SWIDTH 1000 1000
DWIDTH 8 14
BBX 8 14 0 -3
BITMAP
00
00
00
10
10
28
28
44
44
7c
82
82
00
00
ENDCHAR
STARTCHAR 914
ENCODING 914
SWIDTH 1000 1000
DWIDTH 6 14
BBX 6 14 0 -3
BITMAP
00
00
00
f0
88
88
88
f0
88
88
88
f0
00
00
ENDCHAR
STARTCHAR 915
ENCODING 915
SWIDTH 1000 1000
DWIDTH 5 14
BBX 5 14 0 -3
BITMAP
00
00
00
f0
80
80
80
80
80
80
80
80
00
00
ENDCHAR
STARTCHAR 916
ENCODING 916
SWIDTH 1000 1000
DWIDTH 8 14
BBX 8 14 0 -3
BITMAP
00
00
00
10
10
28
28
44
44
82
82
fe
00
00
ENDCHAR
STARTCHAR 917
ENCODING 917
SWIDTH 1000 1000
DWIDTH 5 14
BBX 5 14 0 -3
BITMAP
00
00
00
f0
80
80
80
f0
80
80
80
f0
00
00
ENDCHAR
STARTCHAR 918
ENCODING 918
SWIDTH 1000 1000
DWIDTH 7 14
BBX 7 14 0 -3
BITMAP
00
00
00
fc
08
08
10
10
20
40
80
fc
00
00
ENDCHAR
STARTCHAR 919
ENCODING 919
SWIDTH 1000 1000
DWIDTH 6 14
BBX 6 14 0 -3
BITMAP
00
00
00
88
88
88
88
f8
88
88
88
88
00
00
ENDCHAR
STARTCHAR 920
ENCODING 920
SWIDTH 1000 1000
DWIDTH 6 14
BBX 6 14 0 -3
BITMAP
00
00
00
70
88
88
88
b8
e8
88
88
70
00
00
ENDCHAR
STARTCHAR 921
ENCODING 921
SWIDTH 1000 1000
DWIDTH 4 14
BBX 4 14 0 -3
BITMAP
00
00
00
e0
40
40
40
40
40
40
40
e0
00
00
ENDCHAR
STARTCHAR 922
ENCODING 922
SWIDTH 1000 1000
DWIDTH 6 14
BBX 6 14 0 -3
BITMAP
00
00
00
88
90
90
a0
c0
a0
90
90
88
00
00
ENDCHAR
STARTCHAR 923
ENCODING 923
SWIDTH 1000 1000
DWIDTH 8 14
BBX 8 14 0 -3
BITMAP
00
00
00
10
10
28
28
44
44
44
82
82
00
00
ENDCHAR
STARTCHAR 924
ENCODING 924
SWIDTH 1000 1000
DWIDTH 8 14
BBX 8 14 0 -3
BITMAP
00
00
00
82
c6
aa
aa
92
92
82
82
82
00
00
ENDCHAR
STARTCHAR 925
ENCODING 925
SWIDTH 1000 1000
DWIDTH 7 14
BBX 7 14 0 -3
BITMAP
00
00
00
84
c4
a4
a4
94
94
8c
84
84
00
00
ENDCHAR
STARTCHAR 926
ENCODING 926
SWIDTH 1000 1000
DWIDTH 5 14
BBX 5 14 0 -3
BITMAP
00
00
00
00
f0
00
00
60
00
00
00
f0
00
00
ENDCHAR
STARTCHAR 927
ENCODING 927
SWIDTH 1000 1000
DWIDTH 7 14
BBX 7 14 0 -3
BITMAP
00
00
00
78
84
84
84
84
84
84
84
78
00
00
ENDCHAR
STARTCHAR 928
ENCODING 928
SWIDTH 1000 1000
DWIDTH 7 14
BBX 7 14 0 -3
BITMAP
00
00
00
fc
84
84
84
84
84
84
84
84
00
00
ENDCHAR
STARTCHAR 929
ENCODING 929
SWIDTH 1000 1000
DWIDTH 6 14
BBX 6 14 0 -3
BITMAP
00
00
00
f0
88
88
88
88
f0
80
80
80
00
00
ENDCHAR
STARTCHAR 931
ENCODING 931
SWIDTH 1000 1000
DWIDTH 6 14
BBX 6 14 0 -3
BITMAP
00
00
00
f8
80
40
20
10
20
40
80
f8
00
00
ENDCHAR
STARTCHAR 932
ENCODING 932
SWIDTH 1000 1000
DWIDTH 8 14
BBX 8 14 0 -3
BITMAP
00
00
00
fe
10
10
10
10
10
10
10
10
00
00
ENDCHAR
STARTCHAR 933
ENCODING 933
SWIDTH 1000 1000
DWIDTH 6 14
BBX 6 14 0 -3
BITMAP
00
00
00
88
88
88
50
50
20
20
20
20
00
00
ENDCHAR
STARTCHAR 934
ENCODING 934
SWIDTH 1000 1000
DWIDTH 8 14
BBX 8 14 0 -3
BITMAP
00
00
00
10
10
7c
92
92
92
7c
10
10
00
00
ENDCHAR
STARTCHAR 935
ENCODING 935
SWIDTH 1000 1000
DWIDTH 6 14
BBX 6 14 0 -3
BITMAP
00
00
00
88
88
50
50
20
50
50
88
88
00
00
ENDCHAR
STARTCHAR 936
ENCODING 936
SWIDTH 1000 1000
DWIDTH 8 14
BBX 8 14 0 -3
BITMAP
00
00
00
92
92
92
92
92
7c
10
10
10
00
00
ENDCHAR
STARTCHAR 937
ENCODING 937
SWIDTH 1000 1000
DWIDTH 8 14
BBX 8 14 0 -3
BITMAP
00
00
00
00
38
44
82
82
82
6c
28
ee
00
00
ENDCHAR
STARTCHAR 938
ENCODING 938
SWIDTH 1000 1000
DWIDTH 4 14
BBX 4 14 0 -3
BITMAP
00
a0
a0
00
e0
40
40
40
40
40
40
e0
00
00
ENDCHAR
STARTCHAR 939
ENCODING 939
SWIDTH 1000 1000
DWIDTH 6 14
BBX 6 14 0 -3
BITMAP
00
50
50
00
88
88
88
50
50
20
20
20
00
00
ENDCHAR
STARTCHAR 940
ENCODING 940
SWIDTH 1000 1000
DWIDTH 7 14
BBX 7 14 0 -3
BITMAP
00
00
10
20
00
64
94
88
88
88
94
64
00
00
ENDCHAR
STARTCHAR 941
ENCODING 941
SWIDTH 1000 1000
DWIDTH 6 14
BBX 6 14 0 -3
BITMAP
00
00
10
20
00
70
88
80
70
80
88
70
00
00
ENDCHAR
STARTCHAR 942
ENCODING 942
SWIDTH 1000 1000
DWIDTH 6 14
BBX 6 14 0 -3
BITMAP
00
00
10
20
00
b0
c8
88
88
88
88
88
08
08
ENDCHAR
STARTCHAR 943
ENCODING 943
SWIDTH 1000 1000
DWIDTH 4 14
BBX 4 14 0 -3
BITMAP
00
00
20
40
00
c0
40
40
40
40
40
20
00
00
ENDCHAR
STARTCHAR 944
ENCODING 944
SWIDTH 1000 1000
DWIDTH 6 14
BBX 6 14 0 -3
BITMAP
00
00
98
a8
00
90
88
88
88
88
88
70
00
00
ENDCHAR
STARTCHAR 945
ENCODING 945
SWIDTH 1000 1000
DWIDTH 7 14
BBX 7 14 0 -3
BITMAP
00
00
00
00
00
64
94
88
88
88
94
64
00
00
ENDCHAR
STARTCHAR 946
ENCODING 946
SWIDTH 1000 1000
DWIDTH 6 14
BBX 6 14 0 -3
BITMAP
00
00
70
88
88
88
b0
88
88
88
88
f0
80
80
ENDCHAR
STARTCHAR 947
ENCODING 947
SWIDTH 1000 1000
DWIDTH 6 14
BBX 6 14 0 -3
BITMAP
00
00
00
88
88
88
50
50
20
20
20
20
00
00
ENDCHAR
STARTCHAR 948
ENCODING 948
SWIDTH 1000 1000
DWIDTH 6 14
BBX 6 14 0 -3
BITMAP
00
00
70
88
40
20
50
88
88
88
88
70
00
00
ENDCHAR
STARTCHAR 949
ENCODING 949
SWIDTH 1000 1000
DWIDTH 6 14
BBX 6 14 0 -3
BITMAP
00
00
00
00
00
70
88
80
70
80
88
70
00
00
ENDCHAR
STARTCHAR 950
ENCODING 950
SWIDTH 1000 1000
DWIDTH 5 14
BBX 5 14 0 -3
BITMAP
00
00
f0
10
20
40
80
80
80
80
80
70
10
20
ENDCHAR
STARTCHAR 951
ENCODING 951
SWIDTH 1000 1000
DWIDTH 6 14
BBX 6 14 0 -3
BITMAP
00
00
00
00
00
b0
c8
88
88
88
88
88
08
08
ENDCHAR
STARTCHAR 952
ENCODING 952
SWIDTH 1000 1000
DWIDTH 6 14
BBX 6 14 0 -3
BITMAP
00
00
70
88
88
88
f8
88
88
88
88
70
00
00
ENDCHAR
STARTCHAR 953
ENCODING 953
SWIDTH 1000 1000
DWIDTH 4 14
BBX 4 14 0 -3
BITMAP
00
00
00
00
00
c0
40
40
40
40
40
20
00
00
ENDCHAR
STARTCHAR 954
ENCODING 954
SWIDTH 1000 1000
DWIDTH 6 14
BBX 6 14 0 -3
BITMAP
00
00
00
00
00
88
90
a0
c0
a0
90
88
00
00
ENDCHAR
STARTCHAR 955
ENCODING 955
SWIDTH 1000 1000
DWIDTH 6 14
BBX 6 14 0 -3
BITMAP
00
00
c0
20
20
20
50
50
50
88
88
88
00
00
ENDCHAR
STARTCHAR 956
ENCODING 956
SWIDTH 1000 1000
DWIDTH 6 14
BBX 6 14 0 -3
BITMAP
00
00
00
00
88
88
88
88
88
88
98
e8
80
80
ENDCHAR
STARTCHAR 957
ENCODING 957
SWIDTH 1000 1000
DWIDTH 6 14
BBX 6 14 0 -3
BITMAP
00
00
00
00
00
88
88
88
50
50
20
20
00
00
ENDCHAR
STARTCHAR 958
ENCODING 958
SWIDTH 1000 1000
DWIDTH 5 14
BBX 5 14 0 -3
BITMAP
00
00
80
70
80
80
80
70
80
80
80
70
10
20
ENDCHAR
STARTCHAR 959
ENCODING 959
SWIDTH 1000 1000
DWIDTH 6 14
BBX 6 14 0 -3
BITMAP
00
00
00
00
00
70
88
88
88
88
88
70
00
00
ENDCHAR
STARTCHAR 960
ENCODING 960
SWIDTH 1000 1000
DWIDTH 7 14
BBX 7 14 0 -3
BITMAP
00
00
00
00
00
fc
48
48
48
48
48
44
00
00
ENDCHAR
STARTCHAR 961
ENCODING 961
SWIDTH 1000 1000
DWIDTH 6 14
BBX 6 14 0 -3
BITMAP
00
00
00
00
00
70
88
88
88
88
88
f0
80
80
ENDCHAR
STARTCHAR 962
ENCODING 962
SWIDTH 1000 1000
DWIDTH 5 14
BBX 5 14 0 -3
BITMAP
00
00
00
00
00
70
80
80
80
80
80
70
10
20
ENDCHAR
STARTCHAR 963
ENCODING 963
SWIDTH 1000 1000
DWIDTH 7 14
BBX 7 14 0 -3
BITMAP
00
00
00
00
00
7c
90
88
88
88
88
70
00
00
ENDCHAR
STARTCHAR 964
ENCODING 964
SWIDTH 1000 1000
DWIDTH 6 14
BBX 6 14 0 -3
BITMAP
00
00
00
00
00
f8
20
20
20
20
20
10
00
00
ENDCHAR
STARTCHAR 965
ENCODING 965
SWIDTH 1000 1000
DWIDTH 6 14
BBX 6 14 0 -3
BITMAP
00
00
00
00
90
88
88
88
88
88
88
70
00
00
ENDCHAR
STARTCHAR 966
ENCODING 966
SWIDTH 1000 1000
DWIDTH 8 14
BBX 8 14 0 -3
BITMAP
00
00
00
5c
92
92
92
92
92
7c
10
10
00
00
ENDCHAR
STARTCHAR 967
ENCODING 967
SWIDTH 1000 1000
DWIDTH 6 14
BBX 6 14 0 -3
BITMAP
00
00
00
88
88
50
50
20
50
50
88
88
00
00
ENDCHAR
STARTCHAR 968
ENCODING 968
SWIDTH 1000 1000
DWIDTH 8 14
BBX 8 14 0 -3
BITMAP
00
00
10
92
92
92
92
92
92
7c
10
10
00
00
ENDCHAR
STARTCHAR 969
ENCODING 969
SWIDTH 1000 1000
DWIDTH 8 14
BBX 8 14 0 -3
BITMAP
00
00
08
10
00
44
82
92
92
92
92
6c
00
00
ENDCHAR
STARTCHAR 970
ENCODING 970
SWIDTH 1000 1000
DWIDTH 4 14
BBX 4 14 0 -3
BITMAP
00
00
a0
a0
00
c0
40
40
40
40
40
20
00
00
ENDCHAR
STARTCHAR 971
ENCODING 971
SWIDTH 1000 1000
DWIDTH 6 14
BBX 6 14 0 -3
BITMAP
00
00
50
50
00
90
88
88
88
88
88
70
00
00
ENDCHAR
STARTCHAR 972
ENCODING 972
SWIDTH 1000 1000
DWIDTH 6 14
BBX 6 14 0 -3
BITMAP
00
00
10
20
00
70
88
88
88
88
88
70
00
00
ENDCHAR
STARTCHAR 973
ENCODING 973
SWIDTH 1000 1000
DWIDTH 6 14
BBX 6 14 0 -3
BITMAP
00
00
10
20
00
90
88
88
88
88
88
70
00
00
ENDCHAR
STARTCHAR 974
ENCODING 974
SWIDTH 1000 1000
DWIDTH 8 14
BBX 8 14 0 -3
BITMAP
00
08
10
00
44
82
92
92
92
92
92
6c
00
00
ENDCHAR
STARTCHAR 7680
ENCODING 7680
SWIDTH 1000 1000
DWIDTH 8 14
BBX 8 14 0 -3
BITMAP
00
00
10
10
28
28
44
44
7c
82
82
18
24
18
ENDCHAR
STARTCHAR 7681
ENCODING 7681
SWIDTH 1000 1000
DWIDTH 6 14
BBX 6 14 0 -3
BITMAP
00
00
00
70
08
08
78
88
88
78
00
20
50
20
ENDCHAR
STARTCHAR 7682
ENCODING 7682
SWIDTH 1000 1000
DWIDTH 7 14
BBX 7 14 0 -3
BITMAP
00
00
00
f8
84
84
84
f8
84
84
84
f8
00
00
ENDCHAR
STARTCHAR 7683
ENCODING 7683
SWIDTH 1000 1000
DWIDTH 6 14
BBX 6 14 0 -3
BITMAP
00
00
00
80
80
80
f0
88
88
88
88
f0
00
00
ENDCHAR
STARTCHAR 7684
ENCODING 7684
SWIDTH 1000 1000
DWIDTH 7 14
BBX 7 14 0 -3
BITMAP
00
00
00
f8
84
84
84
f8
84
84
84
f8
00
20
ENDCHAR
STARTCHAR 7685
ENCODING 7685
SWIDTH 1000 1000
DWIDTH 6 14
BBX 6 14 0 -3
BITMAP
00
00
00
80
80
80
f0
88
88
88
88
f0
00
20
ENDCHAR
STARTCHAR 7686
ENCODING 7686
SWIDTH 1000 1000
DWIDTH 7 14
BBX 7 14 0 -3
BITMAP
00
00
00
f8
84
84
84
f8
84
84
84
f8
00
78
ENDCHAR
STARTCHAR 7687
ENCODING 7687
SWIDTH 1000 1000
DWIDTH 6 14
BBX 6 14 0 -3
BITMAP
00
00
00
80
80
80
f0
88
88
88
88
f0
00
70
ENDCHAR
STARTCHAR 7688
ENCODING 7688
SWIDTH 1000 1000
DWIDTH 6 14
BBX 6 14 0 -3
BITMAP
00
00
00
78
80
80
80
80
80
80
80
78
08
30
ENDCHAR
STARTCHAR 7689
ENCODING 7689
SWIDTH 1000 1000
DWIDTH 5 14
BBX 5 14 0 -3
BITMAP
00
00
10
20
00
70
80
80
80
80
80
70
10
20
ENDCHAR
STARTCHAR 7690
ENCODING 7690
SWIDTH 1000 1000
DWIDTH 7 14
BBX 7 14 0 -3
BITMAP
00
00
00
f0
88
84
84
84
84
84
88
f0
00
00
ENDCHAR
STARTCHAR 7691
ENCODING 7691
SWIDTH 1000 1000
DWIDTH 6 14
BBX 6 14 0 -3
BITMAP
00
00
00
08
08
08
78
88
88
88
88
78
00
00
ENDCHAR
STARTCHAR 7692
ENCODING 7692
SWIDTH 1000 1000
DWIDTH 7 14
BBX 7 14 0 -3
BITMAP
00
00
00
f0
88
84
84
84
84
84
88
f0
00
70
ENDCHAR
STARTCHAR 7693
ENCODING 7693
SWIDTH 1000 1000
DWIDTH 6 14
BBX 6 14 0 -3
BITMAP
00
00
00
08
08
08
78
88
88
88
88
78
00
30
ENDCHAR
STARTCHAR 7694
ENCODING 7694
SWIDTH 1000 1000
DWIDTH 7 14
BBX 7 14 0 -3
BITMAP
00
00
00
f0
88
84
84
84
84
84
88
f0
00
78
ENDCHAR
STARTCHAR 7695
ENCODING 7695
SWIDTH 1000 1000
DWIDTH 6 14
BBX 6 14 0 -3
BITMAP
00
00
00
08
08
08
78
88
88
88
88
78
00
78
ENDCHAR
STARTCHAR 7696
ENCODING 7696
SWIDTH 1000 1000
DWIDTH 7 14
BBX 7 14 0 -3
BITMAP
00
00
00
f0
88
84
84
84
84
84
88
f0
10
20
ENDCHAR
STARTCHAR 7697
ENCODING 7697
SWIDTH 1000 1000
DWIDTH 6 14
BBX 6 14 0 -3
BITMAP
00
00
00
08
08
08
78
88
88
88
88
78
10
20
ENDCHAR
STARTCHAR 7698
ENCODING 7698
SWIDTH 1000 1000
DWIDTH 7 14
BBX 7 14 0 -3
BITMAP
00
00
00
f0
88
84
84
84
84
84
88
f0
20
50
ENDCHAR
STARTCHAR 7699
ENCODING 7699
SWIDTH 1000 1000
DWIDTH 6 14
BBX 6 14 0 -3
BITMAP
00
00
00
08
08
08
78
88
88
88
88
78
20
50
ENDCHAR
STARTCHAR 7700
ENCODING 7700
SWIDTH 1000 1000
DWIDTH 6 14
BBX 6 14 0 -3
BITMAP
00
00
00
f8
80
80
80
f8
80
80
80
f8
00
00
ENDCHAR
STARTCHAR 7701
ENCODING 7701
SWIDTH 1000 1000
DWIDTH 6 14
BBX 6 14 0 -3
BITMAP
00
00
20
70
00
70
88
88
f8
80
80
78
00
00
ENDCHAR
STARTCHAR 7702
ENCODING 7702
SWIDTH 1000 1000
DWIDTH 6 14
BBX 6 14 0 -3
BITMAP
00
00
00
f8
80
80
80
f8
80
80
80
f8
00
00
ENDCHAR
STARTCHAR 7703
ENCODING 7703
SWIDTH 1000 1000
DWIDTH 6 14
BBX 6 14 0 -3
BITMAP
00
00
20
70
00
70
88
88
f8
80
80
78
00
00
ENDCHAR
STARTCHAR 7704
ENCODING 7704
SWIDTH 1000 1000
DWIDTH 6 14
BBX 6 14 0 -3
BITMAP
00
00
00
f8
80
80
80
f8
80
80
80
f8
20
50
ENDCHAR
STARTCHAR 7705
ENCODING 7705
SWIDTH 1000 1000
DWIDTH 6 14
BBX 6 14 0 -3
BITMAP
00
00
00
00
00
70
88
88
f8
80
80
78
20
50
ENDCHAR
STARTCHAR 7706
ENCODING 7706
SWIDTH 1000 1000
DWIDTH 6 14
BBX 6 14 0 -3
BITMAP
00
00
00
f8
80
80
80
f8
80
80
80
f8
48
b0
ENDCHAR
STARTCHAR 7707
ENCODING 7707
SWIDTH 1000 1000
DWIDTH 6 14
BBX 6 14 0 -3
BITMAP
00
00
00
00
00
70
88
88
f8
80
80
78
28
50
ENDCHAR
STARTCHAR 7708
ENCODING 7708
SWIDTH 1000 1000
DWIDTH 6 14
BBX 6 14 0 -3
BITMAP
00
00
00
f8
80
80
80
f8
80
80
80
f8
10
20
ENDCHAR
STARTCHAR 7709
ENCODING 7709
SWIDTH 1000 1000
DWIDTH 6 14
BBX 6 14 0 -3
BITMAP
00
00
50
20
00
70
88
88
f8
80
80
78
10
20
ENDCHAR
STARTCHAR 7710
ENCODING 7710
SWIDTH 1000 1000
DWIDTH 5 14
BBX 5 14 0 -3
BITMAP
00
00
00
f0
80
80
80
f0
80
80
80
80
00
00
ENDCHAR
STARTCHAR 7711
ENCODING 7711
SWIDTH 1000 1000
DWIDTH 5 14
BBX 5 14 0 -3
BITMAP
00
00
30
40
40
f0
40
40
40
40
40
40
00
00
ENDCHAR
STARTCHAR 7712
ENCODING 7712
SWIDTH 1000 1000
DWIDTH 6 14
BBX 6 14 0 -3
BITMAP
00
78
00
78
80
80
80
98
88
88
88
78
00
00
ENDCHAR
STARTCHAR 7713
ENCODING 7713
SWIDTH 1000 1000
DWIDTH 6 14
BBX 6 14 0 -3
BITMAP
00
00
00
78
00
78
88
88
88
88
78
08
08
70
ENDCHAR
STARTCHAR 7714
ENCODING 7714
SWIDTH 1000 1000
DWIDTH 6 14
BBX 6 14 0 -3
BITMAP
00
00
00
88
88
88
88
f8
88
88
88
88
00
00
ENDCHAR
STARTCHAR 7715
ENCODING 7715
SWIDTH 1000 1000
DWIDTH 6 14
BBX 6 14 0 -3
BITMAP
00
00
80
80
80
f0
88
88
88
88
88
88
00
00
ENDCHAR
STARTCHAR 7716
ENCODING 7716
SWIDTH 1000 1000
DWIDTH 6 14
BBX 6 14 0 -3
BITMAP
00
00
00
88
88
88
88
f8
88
88
88
88
00
30
ENDCHAR
STARTCHAR 7717
ENCODING 7717
SWIDTH 1000 1000
DWIDTH 6 14
BBX 6 14 0 -3
BITMAP
00
00
80
80
80
f0
88
88
88
88
88
88
00
30
ENDCHAR
STARTCHAR 7718
ENCODING 7718
SWIDTH 1000 1000
DWIDTH 6 14
BBX 6 14 0 -3
BITMAP
00
00
00
88
88
88
88
f8
88
88
88
88
00
00
ENDCHAR
STARTCHAR 7719
ENCODING 7719
SWIDTH 1000 1000
DWIDTH 6 14
BBX 6 14 0 -3
BITMAP
00
00
80
80
80
f0
88
88
88
88
88
88
00
00
ENDCHAR
STARTCHAR 7720
ENCODING 7720
SWIDTH 1000 1000
DWIDTH 6 14
BBX 6 14 0 -3
BITMAP
00
00
88
88
88
88
f8
88
88
88
88
88
40
80
ENDCHAR
STARTCHAR 7721
ENCODING 7721
SWIDTH 1000 1000
DWIDTH 6 14
BBX 6 14 0 -3
BITMAP
00
00
80
80
80
f0
88
88
88
88
88
88
40
80
ENDCHAR
STARTCHAR 7722
ENCODING 7722
SWIDTH 1000 1000
DWIDTH 6 14
BBX 6 14 0 -3
BITMAP
00
00
00
88
88
88
88
f8
88
88
88
88
88
70
ENDCHAR
STARTCHAR 7723
ENCODING 7723
SWIDTH 1000 1000
DWIDTH 6 14
BBX 6 14 0 -3
BITMAP
00
80
80
80
f0
88
88
88
88
88
88
88
70
00
ENDCHAR
STARTCHAR 7724
ENCODING 7724
SWIDTH 1000 1000
DWIDTH 5 14
BBX 5 14 0 -3
BITMAP
00
00
00
e0
40
40
40
40
40
40
40
e0
50
a0
ENDCHAR
STARTCHAR 7725
ENCODING 7725
SWIDTH 1000 1000
DWIDTH 5 14
BBX 5 14 0 -3
BITMAP
00
00
00
40
00
40
40
40
40
40
40
40
50
a0
ENDCHAR
STARTCHAR 7726
ENCODING 7726
SWIDTH 1000 1000
DWIDTH 4 14
BBX 4 14 0 -3
BITMAP
00
00
a0
00
40
40
40
40
40
40
40
40
00
00
ENDCHAR
STARTCHAR 7727
ENCODING 7727
SWIDTH 1000 1000
DWIDTH 4 14
BBX 4 14 0 -3
BITMAP
00
00
00
a0
00
40
40
40
40
40
40
40
00
00
ENDCHAR
STARTCHAR 7728
ENCODING 7728
SWIDTH 1000 1000
DWIDTH 6 14
BBX 6 14 0 -3
BITMAP
00
00
00
88
90
90
a0
c0
a0
90
90
88
00
00
ENDCHAR
STARTCHAR 7729
ENCODING 7729
SWIDTH 1000 1000
DWIDTH 6 14
BBX 6 14 0 -3
BITMAP
00
00
00
80
80
88
90
a0
c0
a0
90
88
00
00
ENDCHAR
STARTCHAR 7730
ENCODING 7730
SWIDTH 1000 1000
DWIDTH 6 14
BBX 6 14 0 -3
BITMAP
00
00
00
88
90
90
a0
c0
a0
90
90
88
00
70
ENDCHAR
STARTCHAR 7731
ENCODING 7731
SWIDTH 1000 1000
DWIDTH 6 14
BBX 6 14 0 -3
BITMAP
00
00
00
80
80
88
90
a0
c0
a0
90
88
00
70
ENDCHAR
STARTCHAR 7732
ENCODING 7732
SWIDTH 1000 1000
DWIDTH 6 14
BBX 6 14 0 -3
BITMAP
00
00
00
88
90
90
a0
c0
a0
90
90
88
00
78
ENDCHAR
STARTCHAR 7733
ENCODING 7733
SWIDTH 1000 1000
DWIDTH 6 14
BBX 6 14 0 -3
BITMAP
00
00
00
80
80
88
90
a0
c0
a0
90
88
00
78
ENDCHAR
STARTCHAR 7734
ENCODING 7734
SWIDTH 1000 1000
DWIDTH 6 14
BBX 6 14 0 -3
BITMAP
00
00
00
80
80
80
80
80
80
80
80
f8
00
30
ENDCHAR
STARTCHAR 7735
ENCODING 7735
SWIDTH 1000 1000
DWIDTH 4 14
BBX 4 14 0 -3
BITMAP
00
00
00
00
40
40
40
40
40
40
40
40
00
e0
ENDCHAR
STARTCHAR 7736
ENCODING 7736
SWIDTH 1000 1000
DWIDTH 6 14
BBX 6 14 0 -3
BITMAP
00
00
00
80
80
80
80
80
80
80
80
f8
00
60
ENDCHAR
STARTCHAR 7737
ENCODING 7737
SWIDTH 1000 1000
DWIDTH 3 14
BBX 3 14 0 -3
BITMAP
00
00
00
00
40
40
40
40
40
40
40
40
00
c0
ENDCHAR
STARTCHAR 7738
ENCODING 7738
SWIDTH 1000 1000
DWIDTH 6 14
BBX 6 14 0 -3
BITMAP
00
00
00
80
80
80
80
80
80
80
80
f8
00
78
ENDCHAR
STARTCHAR 7739
ENCODING 7739
SWIDTH 1000 1000
DWIDTH 5 14
BBX 5 14 0 -3
BITMAP
00
00
00
00
40
40
40
40
40
40
40
40
00
f0
ENDCHAR
STARTCHAR 7740
ENCODING 7740
SWIDTH 1000 1000
DWIDTH 6 14
BBX 6 14 0 -3
BITMAP
00
00
00
80
80
80
80
80
80
80
80
f8
30
48
ENDCHAR
STARTCHAR 7741
ENCODING 7741
SWIDTH 1000 1000
DWIDTH 5 14
BBX 5 14 0 -3
BITMAP
00
00
00
00
40
40
40
40
40
40
40
40
60
90
ENDCHAR
STARTCHAR 7742
ENCODING 7742
SWIDTH 1000 1000
DWIDTH 8 14
BBX 8 14 0 -3
BITMAP
00
08
10
82
c6
aa
aa
92
92
82
82
82
00
00
ENDCHAR
STARTCHAR 7743
ENCODING 7743
SWIDTH 1000 1000
DWIDTH 10 14
BBX 10 14 0 -3
BITMAP
0000
0000
0400
0800
0000
f700
8880
8880
8880
8880
8880
8880
0000
0000
ENDCHAR
STARTCHAR 7744
ENCODING 7744
SWIDTH 1000 1000
DWIDTH 8 14
BBX 8 14 0 -3
BITMAP
00
00
10
82
c6
aa
aa
92
92
82
82
82
00
00
ENDCHAR
STARTCHAR 7745
ENCODING 7745
SWIDTH 1000 1000
DWIDTH 10 14
BBX 10 14 0 -3
BITMAP
0000
0000
0000
0800
0000
f700
8880
8880
8880
8880
8880
8880
0000
0000
ENDCHAR
STARTCHAR 7746
ENCODING 7746
SWIDTH 1000 1000
DWIDTH 8 14
BBX 8 14 0 -3
BITMAP
00
00
00
00
82
c6
aa
aa
92
92
82
82
00
30
ENDCHAR
STARTCHAR 7747
ENCODING 7747
SWIDTH 1000 1000
DWIDTH 10 14
BBX 10 14 0 -3
BITMAP
0000
0000
0000
0000
0000
f700
8880
8880
8880
8880
8880
8880
0000
0c00
ENDCHAR
STARTCHAR 7748
ENCODING 7748
SWIDTH 1000 1000
DWIDTH 7 14
BBX 7 14 0 -3
BITMAP
00
10
00
84
c4
a4
a4
94
94
8c
84
84
00
00
ENDCHAR
STARTCHAR 7749
ENCODING 7749
SWIDTH 1000 1000
DWIDTH 6 14
BBX 6 14 0 -3
BITMAP
00
00
00
20
00
f0
88
88
88
88
88
88
00
00
ENDCHAR
STARTCHAR 7750
ENCODING 7750
SWIDTH 1000 1000
DWIDTH 7 14
BBX 7 14 0 -3
BITMAP
00
00
00
84
c4
a4
a4
94
94
8c
84
84
00
38
ENDCHAR
STARTCHAR 7751
ENCODING 7751
SWIDTH 1000 1000
DWIDTH 6 14
BBX 6 14 0 -3
BITMAP
00
00
00
00
00
f0
88
88
88
88
88
88
00
30
ENDCHAR
STARTCHAR 7752
ENCODING 7752
SWIDTH 1000 1000
DWIDTH 7 14
BBX 7 14 0 -3
BITMAP
00
00
00
84
c4
a4
a4
94
94
8c
84
84
00
78
ENDCHAR
STARTCHAR 7753
ENCODING 7753
SWIDTH 1000 1000
DWIDTH 6 14
BBX 6 14 0 -3
BITMAP
00
00
00
00
00
f0
88
88
88
88
88
88
00
70
ENDCHAR
STARTCHAR 7754
ENCODING 7754
SWIDTH 1000 1000
DWIDTH 7 14
BBX 7 14 0 -3
BITMAP
00
00
00
84
c4
a4
a4
94
94
8c
84
84
30
48
ENDCHAR
STARTCHAR 7755
ENCODING 7755
SWIDTH 1000 1000
DWIDTH 6 14
BBX 6 14 0 -3
BITMAP
00
00
00
00
00
f0
88
88
88
88
88
88
30
48
ENDCHAR
STARTCHAR 7756
ENCODING 7756
SWIDTH 1000 1000
DWIDTH 6 14
BBX 6 14 0 -3
BITMAP
28
50
00
70
88
88
88
88
88
88
88
70
00
00
ENDCHAR
STARTCHAR 7757
ENCODING 7757
SWIDTH 1000 1000
DWIDTH 6 14
BBX 6 14 0 -3
BITMAP
00
00
50
a0
00
70
88
88
88
88
88
70
00
00
ENDCHAR
STARTCHAR 7758
ENCODING 7758
SWIDTH 1000 1000
DWIDTH 6 14
BBX 6 14 0 -3
BITMAP
48
b4
00
70
88
88
88
88
88
88
88
70
00
00
ENDCHAR
STARTCHAR 7759
ENCODING 7759
SWIDTH 1000 1000
DWIDTH 6 14
BBX 6 14 0 -3
BITMAP
28
00
28
50
00
70
88
88
88
88
88
70
00
00
ENDCHAR
STARTCHAR 7760
ENCODING 7760
SWIDTH 1000 1000
DWIDTH 6 14
BBX 6 14 0 -3
BITMAP
00
00
00
70
88
88
88
88
88
88
88
70
00
00
ENDCHAR
STARTCHAR 7761
ENCODING 7761
SWIDTH 1000 1000
DWIDTH 6 14
BBX 6 14 0 -3
BITMAP
00
40
20
70
00
70
88
88
88
88
88
70
00
00
ENDCHAR
STARTCHAR 7762
ENCODING 7762
SWIDTH 1000 1000
DWIDTH 6 14
BBX 6 14 0 -3
BITMAP
00
00
00
70
88
88
88
88
88
88
88
70
00
00
ENDCHAR
STARTCHAR 7763
ENCODING 7763
SWIDTH 1000 1000
DWIDTH 6 14
BBX 6 14 0 -3
BITMAP
00
00
20
70
00
70
88
88
88
88
88
70
00
00
ENDCHAR
STARTCHAR 7764
ENCODING 7764
SWIDTH 1000 1000
DWIDTH 6 14
BBX 6 14 0 -3
BITMAP
00
00
00
f0
88
88
88
88
f0
80
80
80
00
00
ENDCHAR
STARTCHAR 7765
ENCODING 7765
SWIDTH 1000 1000
DWIDTH 6 14
BBX 6 14 0 -3
BITMAP
00
00
40
00
f0
88
88
88
88
f0
80
80
00
00
ENDCHAR
STARTCHAR 7766
ENCODING 7766
SWIDTH 1000 1000
DWIDTH 6 14
BBX 6 14 0 -3
BITMAP
00
00
00
f0
88
88
88
88
f0
80
80
80
00
00
ENDCHAR
STARTCHAR 7767
ENCODING 7767
SWIDTH 1000 1000
DWIDTH 6 14
BBX 6 14 0 -3
BITMAP
00
00
20
00
f0
88
88
88
88
f0
80
80
00
00
ENDCHAR
STARTCHAR 7768
ENCODING 7768
SWIDTH 1000 1000
DWIDTH 6 14
BBX 6 14 0 -3
BITMAP
00
00
00
f0
88
88
88
f0
88
88
88
88
00
00
ENDCHAR
STARTCHAR 7769
ENCODING 7769
SWIDTH 1000 1000
DWIDTH 4 14
BBX 4 14 0 -3
BITMAP
00
00
00
40
00
e0
80
80
80
80
80
80
00
00
ENDCHAR
STARTCHAR 7770
ENCODING 7770
SWIDTH 1000 1000
DWIDTH 6 14
BBX 6 14 0 -3
BITMAP
00
00
00
f0
88
88
88
f0
88
88
88
88
00
30
ENDCHAR
STARTCHAR 7771
ENCODING 7771
SWIDTH 1000 1000
DWIDTH 4 14
BBX 4 14 0 -3
BITMAP
00
00
00
00
00
e0
80
80
80
80
80
80
00
60
ENDCHAR
STARTCHAR 7772
ENCODING 7772
SWIDTH 1000 1000
DWIDTH 6 14
BBX 6 14 0 -3
BITMAP
00
00
00
f0
88
88
88
f0
88
88
88
88
00
30
ENDCHAR
STARTCHAR 7773
ENCODING 7773
SWIDTH 1000 1000
DWIDTH 4 14
BBX 4 14 0 -3
BITMAP
00
00
00
e0
00
e0
80
80
80
80
80
80
00
60
ENDCHAR
STARTCHAR 7774
ENCODING 7774
SWIDTH 1000 1000
DWIDTH 6 14
BBX 6 14 0 -3
BITMAP
00
00
00
f0
88
88
88
f0
88
88
88
88
00
78
ENDCHAR
STARTCHAR 7775
ENCODING 7775
SWIDTH 1000 1000
DWIDTH 4 14
BBX 4 14 0 -3
BITMAP
00
00
00
00
00
e0
80
80
80
80
80
80
00
e0
ENDCHAR
STARTCHAR 7776
ENCODING 7776
SWIDTH 1000 1000
DWIDTH 6 14
BBX 6 14 0 -3
BITMAP
00
00
00
78
80
80
40
20
10
08
08
f0
00
00
ENDCHAR
STARTCHAR 7777
ENCODING 7777
SWIDTH 1000 1000
DWIDTH 6 14
BBX 6 14 0 -3
BITMAP
00
00
00
20
00
70
80
80
70
08
08
f0
00
00
ENDCHAR
STARTCHAR 7778
ENCODING 7778
SWIDTH 1000 1000
DWIDTH 6 14
BBX 6 14 0 -3
BITMAP
00
00
00
78
80
80
40
20
10
08
08
f0
00
30
ENDCHAR
STARTCHAR 7779
ENCODING 7779
SWIDTH 1000 1000
DWIDTH 6 14
BBX 6 14 0 -3
BITMAP
00
00
00
00
00
78
80
80
70
08
08
f0
00
30
ENDCHAR
STARTCHAR 7780
ENCODING 7780
SWIDTH 1000 1000
DWIDTH 6 14
BBX 6 14 0 -3
BITMAP
00
00
00
78
80
80
40
20
10
08
08
f0
00
00
ENDCHAR
STARTCHAR 7781
ENCODING 7781
SWIDTH 1000 1000
DWIDTH 6 14
BBX 6 14 0 -3
BITMAP
00
00
10
20
00
78
80
80
70
08
08
f0
00
00
ENDCHAR
STARTCHAR 7782
ENCODING 7782
SWIDTH 1000 1000
DWIDTH 6 14
BBX 6 14 0 -3
BITMAP
00
00
00
78
80
80
40
20
10
08
08
f0
00
00
ENDCHAR
STARTCHAR 7783
ENCODING 7783
SWIDTH 1000 1000
DWIDTH 6 14
BBX 6 14 0 -3
BITMAP
00
00
50
20
00
78
80
80
70
08
08
f0
00
00
ENDCHAR
STARTCHAR 7784
ENCODING 7784
SWIDTH 1000 1000
DWIDTH 6 14
BBX 6 14 0 -3
BITMAP
00
00
00
78
80
80
40
20
10
08
08
f0
00
30
ENDCHAR
STARTCHAR 7785
ENCODING 7785
SWIDTH 1000 1000
DWIDTH 6 14
BBX 6 14 0 -3
BITMAP
00
00
00
20
00
78
80
80
70
08
08
f0
00
30
ENDCHAR
STARTCHAR 7786
ENCODING 7786
SWIDTH 1000 1000
DWIDTH 6 14
BBX 6 14 0 -3
BITMAP
00
00
00
f8
20
20
20
20
20
20
20
20
00
00
ENDCHAR
STARTCHAR 7787
ENCODING 7787
SWIDTH 1000 1000
DWIDTH 5 14
BBX 5 14 0 -3
BITMAP
00
00
00
40
40
f0
40
40
40
40
40
30
00
00
ENDCHAR
STARTCHAR 7788
ENCODING 7788
SWIDTH 1000 1000
DWIDTH 6 14
BBX 6 14 0 -3
BITMAP
00
00
00
f8
20
20
20
20
20
20
20
20
00
20
ENDCHAR
STARTCHAR 7789
ENCODING 7789
SWIDTH 1000 1000
DWIDTH 5 14
BBX 5 14 0 -3
BITMAP
00
00
00
40
40
f0
40
40
40
40
40
30
00
40
ENDCHAR
STARTCHAR 7790
ENCODING 7790
SWIDTH 1000 1000
DWIDTH 6 14
BBX 6 14 0 -3
BITMAP
00
00
00
f8
20
20
20
20
20
20
20
20
00
78
ENDCHAR
STARTCHAR 7791
ENCODING 7791
SWIDTH 1000 1000
DWIDTH 5 14
BBX 5 14 0 -3
BITMAP
00
00
00
40
40
f0
40
40
40
40
40
30
00
70
ENDCHAR
STARTCHAR 7792
ENCODING 7792
SWIDTH 1000 1000
DWIDTH 6 14
BBX 6 14 0 -3
BITMAP
00
00
00
f8
20
20
20
20
20
20
20
20
30
48
ENDCHAR
STARTCHAR 7793
ENCODING 7793
SWIDTH 1000 1000
DWIDTH 5 14
BBX 5 14 0 -3
BITMAP
00
00
00
40
40
f0
40
40
40
40
40
30
60
90
ENDCHAR
STARTCHAR 7794
ENCODING 7794
SWIDTH 1000 1000
DWIDTH 7 14
BBX 7 14 0 -3
BITMAP
00
00
00
84
84
84
84
84
84
84
84
78
00
48
ENDCHAR
STARTCHAR 7795
ENCODING 7795
SWIDTH 1000 1000
DWIDTH 6 14
BBX 6 14 0 -3
BITMAP
00
00
00
00
00
88
88
88
88
88
88
78
00
48
ENDCHAR
STARTCHAR 7796
ENCODING 7796
SWIDTH 1000 1000
DWIDTH 7 14
BBX 7 14 0 -3
BITMAP
00
00
00
84
84
84
84
84
84
84
84
78
34
48
ENDCHAR
STARTCHAR 7797
ENCODING 7797
SWIDTH 1000 1000
DWIDTH 6 14
BBX 6 14 0 -3
BITMAP
00
00
00
00
00
88
88
88
88
88
88
78
48
b0
ENDCHAR
STARTCHAR 7798
ENCODING 7798
SWIDTH 1000 1000
DWIDTH 7 14
BBX 7 14 0 -3
BITMAP
00
00
00
84
84
84
84
84
84
84
84
78
30
48
ENDCHAR
STARTCHAR 7799
ENCODING 7799
SWIDTH 1000 1000
DWIDTH 6 14
BBX 6 14 0 -3
BITMAP
00
00
00
00
00
88
88
88
88
88
88
78
30
48
ENDCHAR
STARTCHAR 7800
ENCODING 7800
SWIDTH 1000 1000
DWIDTH 7 14
BBX 7 14 0 -3
BITMAP
48
b0
00
84
84
84
84
84
84
84
84
78
00
00
ENDCHAR
STARTCHAR 7801
ENCODING 7801
SWIDTH 1000 1000
DWIDTH 6 14
BBX 6 14 0 -3
BITMAP
00
00
48
b0
00
88
88
88
88
88
88
78
00
00
ENDCHAR
STARTCHAR 7802
ENCODING 7802
SWIDTH 1000 1000
DWIDTH 7 14
BBX 7 14 0 -3
BITMAP
00
78
00
84
84
84
84
84
84
84
84
78
00
00
ENDCHAR
STARTCHAR 7803
ENCODING 7803
SWIDTH 1000 1000
DWIDTH 6 14
BBX 6 14 0 -3
BITMAP
00
00
00
78
00
88
88
88
88
88
88
78
00
00
ENDCHAR
STARTCHAR 7804
ENCODING 7804
SWIDTH 1000 1000
DWIDTH 8 14
BBX 8 14 0 -3
BITMAP
24
58
00
82
82
44
44
44
28
28
10
10
00
00
ENDCHAR
STARTCHAR 7805
ENCODING 7805
SWIDTH 1000 1000
DWIDTH 6 14
BBX 6 14 0 -3
BITMAP
00
00
50
a0
00
88
88
88
50
50
20
20
00
00
ENDCHAR
STARTCHAR 7806
ENCODING 7806
SWIDTH 1000 1000
DWIDTH 8 14
BBX 8 14 0 -3
BITMAP
00
00
00
82
82
44
44
44
28
28
10
10
00
38
ENDCHAR
STARTCHAR 7807
ENCODING 7807
SWIDTH 1000 1000
DWIDTH 6 14
BBX 6 14 0 -3
BITMAP
00
00
00
00
00
88
88
88
50
50
20
20
00
70
ENDCHAR
STARTCHAR 7808
ENCODING 7808
SWIDTH 1000 1000
DWIDTH 10 14
BBX 10 14 0 -3
BITMAP
1000
0800
0000
8880
8880
8880
8880
5500
5500
5500
2200
2200
0000
0000
ENDCHAR
STARTCHAR 7809
ENCODING 7809
SWIDTH 1000 1000
DWIDTH 10 14
BBX 10 14 0 -3
BITMAP
0000
0000
1000
0800
0000
8880
8880
8880
5500
5500
2200
2200
0000
0000
ENDCHAR
STARTCHAR 7810
ENCODING 7810
SWIDTH 1000 1000
DWIDTH 10 14
BBX 10 14 0 -3
BITMAP
0400
0800
0000
8880
8880
8880
8880
5500
5500
5500
2200
2200
0000
0000
ENDCHAR
STARTCHAR 7811
ENCODING 7811
SWIDTH 1000 1000
DWIDTH 10 14
BBX 10 14 0 -3
BITMAP
0000
0000
0800
1000
0000
8880
8880
8880
5500
5500
2200
2200
0000
0000
ENDCHAR
STARTCHAR 7812
ENCODING 7812
SWIDTH 1000 1000
DWIDTH 10 14
BBX 10 14 0 -3
BITMAP
0000
2200
0000
8880
8880
8880
8880
5500
5500
5500
2200
2200
0000
0000
ENDCHAR
STARTCHAR 7813
ENCODING 7813
SWIDTH 1000 1000
DWIDTH 10 14
BBX 10 14 0 -3
BITMAP
0000
0000
0000
2200
0000
8880
8880
8880
5500
5500
2200
2200
0000
0000
ENDCHAR
STARTCHAR 7814
ENCODING 7814
SWIDTH 1000 1000
DWIDTH 10 14
BBX 10 14 0 -3
BITMAP
0000
0800
0000
8880
8880
8880
8880
5500
5500
5500
2200
2200
0000
0000
ENDCHAR
STARTCHAR 7815
ENCODING 7815
SWIDTH 1000 1000
DWIDTH 10 14
BBX 10 14 0 -3
BITMAP
0000
0000
0000
0800
0000
8880
8880
8880
5500
5500
2200
2200
0000
0000
ENDCHAR
STARTCHAR 7816
ENCODING 7816
SWIDTH 1000 1000
DWIDTH 10 14
BBX 10 14 0 -3
BITMAP
0000
0000
0000
8880
8880
8880
8880
5500
5500
5500
2200
2200
0800
0000
ENDCHAR
STARTCHAR 7817
ENCODING 7817
SWIDTH 1000 1000
DWIDTH 10 14
BBX 10 14 0 -3
BITMAP
0000
0000
0000
0000
0000
8880
8880
8880
5500
5500
2200
2200
0800
0000
ENDCHAR
STARTCHAR 7818
ENCODING 7818
SWIDTH 1000 1000
DWIDTH 8 14
BBX 8 14 0 -3
BITMAP
00
10
00
82
44
44
28
10
28
44
44
82
00
00
ENDCHAR
STARTCHAR 7819
ENCODING 7819
SWIDTH 1000 1000
DWIDTH 6 14
BBX 6 14 0 -3
BITMAP
00
00
00
20
00
88
88
50
20
50
88
88
00
00
ENDCHAR
STARTCHAR 7820
ENCODING 7820
SWIDTH 1000 1000
DWIDTH 8 14
BBX 8 14 0 -3
BITMAP
00
28
00
82
44
44
28
10
28
44
44
82
00
00
ENDCHAR
STARTCHAR 7821
ENCODING 7821
SWIDTH 1000 1000
DWIDTH 6 14
BBX 6 14 0 -3
BITMAP
00
00
00
50
00
88
88
50
20
50
88
88
00
00
ENDCHAR
STARTCHAR 7822
ENCODING 7822
SWIDTH 1000 1000
DWIDTH 8 14
BBX 8 14 0 -3
BITMAP
00
10
00
82
44
44
28
10
10
10
10
10
00
00
ENDCHAR
STARTCHAR 7823
ENCODING 7823
SWIDTH 1000 1000
DWIDTH 6 14
BBX 6 14 0 -3
BITMAP
00
00
00
20
00
88
88
50
50
20
20
20
00
00
ENDCHAR
STARTCHAR 7824
ENCODING 7824
SWIDTH 1000 1000
DWIDTH 7 14
BBX 7 14 0 -3
BITMAP
20
50
00
f8
08
10
10
20
40
40
80
fc
00
00
ENDCHAR
STARTCHAR 7825
ENCODING 7825
SWIDTH 1000 1000
DWIDTH 6 14
BBX 6 14 0 -3
BITMAP
00
00
20
50
00
f8
08
10
20
40
80
f8
00
00
ENDCHAR
STARTCHAR 7826
ENCODING 7826
SWIDTH 1000 1000
DWIDTH 6 14
BBX 6 14 0 -3
BITMAP
00
00
00
f8
08
10
10
20
40
40
80
f8
00
30
ENDCHAR
STARTCHAR 7827
ENCODING 7827
SWIDTH 1000 1000
DWIDTH 6 14
BBX 6 14 0 -3
BITMAP
00
00
00
00
00
f8
08
10
20
40
80
f8
00
30
ENDCHAR
STARTCHAR 7828
ENCODING 7828
SWIDTH 1000 1000
DWIDTH 6 14
BBX 6 14 0 -3
BITMAP
00
00
00
f8
08
10
10
20
40
40
80
f8
00
78
ENDCHAR
STARTCHAR 7829
ENCODING 7829
SWIDTH 1000 1000
DWIDTH 6 14
BBX 6 14 0 -3
BITMAP
00
00
00
00
00
f8
08
10
20
40
80
f8
00
78
ENDCHAR
STARTCHAR 7830
ENCODING 7830
SWIDTH 1000 1000
DWIDTH 6 14
BBX 6 14 0 -3
BITMAP
00
00
00
80
80
80
f0
88
88
88
88
88
00
78
ENDCHAR
STARTCHAR 7831
ENCODING 7831
SWIDTH 1000 1000
DWIDTH 5 14
BBX 5 14 0 -3
BITMAP
00
00
00
40
40
f0
40
40
40
40
40
30
00
00
ENDCHAR
STARTCHAR 7832
ENCODING 7832
SWIDTH 1000 1000
DWIDTH 10 14
BBX 10 14 0 -3
BITMAP
0000
0000
2400
1800
0000
8880
8880
8880
5500
5500
2200
2200
0000
0000
ENDCHAR
STARTCHAR 7833
ENCODING 7833
SWIDTH 1000 1000
DWIDTH 6 14
BBX 6 14 0 -3
BITMAP
00
00
60
90
60
88
88
50
50
20
20
20
00
00
ENDCHAR
STARTCHAR 7834
ENCODING 7834
SWIDTH 1000 1000
DWIDTH 6 14
BBX 6 14 0 -3
BITMAP
00
00
10
20
00
70
08
08
78
88
88
78
00
00
ENDCHAR
STARTCHAR 7835
ENCODING 7835
SWIDTH 1000 1000
DWIDTH 4 14
BBX 4 14 0 -3
BITMAP
00
00
60
80
40
40
40
40
40
40
40
40
00
00
ENDCHAR
STARTCHAR 7836
ENCODING 7836
SWIDTH 1000 1000
DWIDTH 4 14
BBX 4 14 0 -3
BITMAP
00
00
60
80
40
40
40
60
c0
40
40
40
00
00
ENDCHAR
STARTCHAR 7837
ENCODING 7837
SWIDTH 1000 1000
DWIDTH 5 14
BBX 5 14 0 -3
BITMAP
00
00
30
40
40
f0
40
c0
40
40
40
40
00
00
ENDCHAR
STARTCHAR 7838
ENCODING 7838
SWIDTH 1000 1000
DWIDTH 7 14
BBX 7 14 0 -3
BITMAP
00
00
00
70
88
88
90
90
88
84
a4
98
00
00
ENDCHAR
STARTCHAR 7839
ENCODING 7839
SWIDTH 1000 1000
DWIDTH 6 14
BBX 6 14 0 -3
BITMAP
00
00
70
88
40
70
88
88
88
88
88
70
00
00
ENDCHAR
STARTCHAR 7840
ENCODING 7840
SWIDTH 1000 1000
DWIDTH 8 14
BBX 8 14 0 -3
BITMAP
00
00
00
10
10
28
28
44
44
7c
82
82
38
00
ENDCHAR
STARTCHAR 7841
ENCODING 7841
SWIDTH 1000 1000
DWIDTH 6 14
BBX 6 14 0 -3
BITMAP
00
00
00
00
00
70
08
08
78
88
88
78
00
30
ENDCHAR
STARTCHAR 7842
ENCODING 7842
SWIDTH 1000 1000
DWIDTH 8 14
BBX 8 14 0 -3
BITMAP
00
10
00
10
10
28
28
44
44
7c
82
82
00
00
ENDCHAR
STARTCHAR 7843
ENCODING 7843
SWIDTH 1000 1000
DWIDTH 6 14
BBX 6 14 0 -3
BITMAP
00
00
00
20
00
70
08
08
78
88
88
78
00
00
ENDCHAR
STARTCHAR 7844
ENCODING 7844
SWIDTH 1000 1000
DWIDTH 8 14
BBX 8 14 0 -3
BITMAP
28
50
00
10
10
28
28
44
44
7c
82
82
00
00
ENDCHAR
STARTCHAR 7845
ENCODING 7845
SWIDTH 1000 1000
DWIDTH 6 14
BBX 6 14 0 -3
BITMAP
00
00
28
50
00
70
08
08
78
88
88
78
00
00
ENDCHAR
STARTCHAR 7846
ENCODING 7846
SWIDTH 1000 1000
DWIDTH 8 14
BBX 8 14 0 -3
BITMAP
50
28
00
10
10
28
28
44
44
7c
82
82
00
00
ENDCHAR
STARTCHAR 7847
ENCODING 7847
SWIDTH 1000 1000
DWIDTH 6 14
BBX 6 14 0 -3
BITMAP
00
00
a0
50
00
70
08
08
78
88
88
78
00
00
ENDCHAR
STARTCHAR 7848
ENCODING 7848
SWIDTH 1000 1000
DWIDTH 8 14
BBX 8 14 0 -3
BITMAP
22
54
00
10
10
28
28
44
44
7c
82
82
00
00
ENDCHAR
STARTCHAR 7849
ENCODING 7849
SWIDTH 1000 1000
DWIDTH 8 14
BBX 8 14 0 -3
BITMAP
00
00
22
54
00
70
08
08
78
88
88
78
00
00
ENDCHAR
STARTCHAR 7850
ENCODING 7850
SWIDTH 1000 1000
DWIDTH 8 14
BBX 8 14 0 -3
BITMAP
28
10
00
10
10
28
28
44
44
7c
82
82
00
00
ENDCHAR
STARTCHAR 7851
ENCODING 7851
SWIDTH 1000 1000
DWIDTH 6 14
BBX 6 14 0 -3
BITMAP
00
00
50
20
00
70
08
08
78
88
88
78
00
00
ENDCHAR
STARTCHAR 7852
ENCODING 7852
SWIDTH 1000 1000
DWIDTH 8 14
BBX 8 14 0 -3
BITMAP
00
00
00
10
10
28
28
44
44
7c
82
82
10
00
ENDCHAR
STARTCHAR 7853
ENCODING 7853
SWIDTH 1000 1000
DWIDTH 6 14
BBX 6 14 0 -3
BITMAP
00
00
20
50
00
70
08
08
78
88
88
78
00
10
ENDCHAR
STARTCHAR 7854
ENCODING 7854
SWIDTH 1000 1000
DWIDTH 8 14
BBX 8 14 0 -3
BITMAP
08
52
3c
00
10
28
28
44
44
7c
82
82
00
00
ENDCHAR
STARTCHAR 7855
ENCODING 7855
SWIDTH 1000 1000
DWIDTH 6 14
BBX 6 14 0 -3
BITMAP
00
10
a4
78
00
70
08
08
78
88
88
78
00
00
ENDCHAR
STARTCHAR 7856
ENCODING 7856
SWIDTH 1000 1000
DWIDTH 8 14
BBX 8 14 0 -3
BITMAP
10
4a
3c
00
10
28
28
44
44
7c
82
82
00
00
ENDCHAR
STARTCHAR 7857
ENCODING 7857
SWIDTH 1000 1000
DWIDTH 6 14
BBX 6 14 0 -3
BITMAP
00
20
94
78
00
70
08
08
78
88
88
78
00
00
ENDCHAR
STARTCHAR 7858
ENCODING 7858
SWIDTH 1000 1000
DWIDTH 8 14
BBX 8 14 0 -3
BITMAP
54
38
00
10
10
28
28
44
44
7c
82
82
00
00
ENDCHAR
STARTCHAR 7859
ENCODING 7859
SWIDTH 1000 1000
DWIDTH 6 14
BBX 6 14 0 -3
BITMAP
00
00
10
20
88
70
08
08
78
88
88
78
00
00
ENDCHAR
STARTCHAR 7860
ENCODING 7860
SWIDTH 1000 1000
DWIDTH 8 14
BBX 8 14 0 -3
BITMAP
28
7c
00
10
10
28
28
44
44
7c
82
82
00
00
ENDCHAR
STARTCHAR 7861
ENCODING 7861
SWIDTH 1000 1000
DWIDTH 6 14
BBX 6 14 0 -3
BITMAP
00
00
a0
00
88
70
08
08
78
88
88
78
00
00
ENDCHAR
STARTCHAR 7862
ENCODING 7862
SWIDTH 1000 1000
DWIDTH 8 14
BBX 8 14 0 -3
BITMAP
28
10
00
10
10
28
28
44
44
7c
82
82
00
18
ENDCHAR
STARTCHAR 7863
ENCODING 7863
SWIDTH 1000 1000
DWIDTH 6 14
BBX 6 14 0 -3
BITMAP
00
00
90
60
00
70
08
08
78
88
88
78
00
20
ENDCHAR
STARTCHAR 7864
ENCODING 7864
SWIDTH 1000 1000
DWIDTH 6 14
BBX 6 14 0 -3
BITMAP
00
00
00
f8
80
80
80
f8
80
80
80
f8
00
20
ENDCHAR
STARTCHAR 7865
ENCODING 7865
SWIDTH 1000 1000
DWIDTH 6 14
BBX 6 14 0 -3
BITMAP
00
00
00
00
00
70
88
88
f8
80
80
78
00
30
ENDCHAR
STARTCHAR 7866
ENCODING 7866
SWIDTH 1000 1000
DWIDTH 6 14
BBX 6 14 0 -3
BITMAP
30
10
20
f8
80
80
80
f8
80
80
80
f8
00
00
ENDCHAR
STARTCHAR 7867
ENCODING 7867
SWIDTH 1000 1000
DWIDTH 6 14
BBX 6 14 0 -3
BITMAP
00
00
60
20
40
70
88
88
f8
80
80
78
00
00
ENDCHAR
STARTCHAR 7868
ENCODING 7868
SWIDTH 1000 1000
DWIDTH 6 14
BBX 6 14 0 -3
BITMAP
28
50
00
f8
80
80
80
f8
80
80
80
f8
00
00
ENDCHAR
STARTCHAR 7869
ENCODING 7869
SWIDTH 1000 1000
DWIDTH 6 14
BBX 6 14 0 -3
BITMAP
00
00
28
50
00
70
88
88
f8
80
80
78
00
00
ENDCHAR
STARTCHAR 7870
ENCODING 7870
SWIDTH 1000 1000
DWIDTH 6 14
BBX 6 14 0 -3
BITMAP
44
a8
00
f8
80
80
80
f8
80
80
80
f8
00
00
ENDCHAR
STARTCHAR 7871
ENCODING 7871
SWIDTH 1000 1000
DWIDTH 7 14
BBX 7 14 0 -3
BITMAP
00
00
44
a8
00
70
88
88
f8
80
80
78
00
00
ENDCHAR
STARTCHAR 7872
ENCODING 7872
SWIDTH 1000 1000
DWIDTH 7 14
BBX 7 14 0 -3
BITMAP
88
54
00
f8
80
80
80
f8
80
80
80
f8
00
00
ENDCHAR
STARTCHAR 7873
ENCODING 7873
SWIDTH 1000 1000
DWIDTH 7 14
BBX 7 14 0 -3
BITMAP
00
00
88
54
00
70
88
88
f8
80
80
78
00
00
ENDCHAR
STARTCHAR 7874
ENCODING 7874
SWIDTH 1000 1000
DWIDTH 7 14
BBX 7 14 0 -3
BITMAP
44
a8
00
f8
80
80
80
f8
80
80
80
f8
00
00
ENDCHAR
STARTCHAR 7875
ENCODING 7875
SWIDTH 1000 1000
DWIDTH 7 14
BBX 7 14 0 -3
BITMAP
00
00
44
a8
00
70
88
88
f8
80
80
78
00
00
ENDCHAR
STARTCHAR 7876
ENCODING 7876
SWIDTH 1000 1000
DWIDTH 6 14
BBX 6 14 0 -3
BITMAP
58
b0
00
f8
80
80
80
f8
80
80
80
f8
00
00
ENDCHAR
STARTCHAR 7877
ENCODING 7877
SWIDTH 1000 1000
DWIDTH 6 14
BBX 6 14 0 -3
BITMAP
00
00
58
b0
00
70
88
88
f8
80
80
78
00
00
ENDCHAR
STARTCHAR 7878
ENCODING 7878
SWIDTH 1000 1000
DWIDTH 6 14
BBX 6 14 0 -3
BITMAP
20
50
00
f8
80
80
80
f8
80
80
80
f8
00
20
ENDCHAR
STARTCHAR 7879
ENCODING 7879
SWIDTH 1000 1000
DWIDTH 6 14
BBX 6 14 0 -3
BITMAP
00
00
20
50
00
70
88
88
f8
80
80
78
00
20
ENDCHAR
STARTCHAR 7880
ENCODING 7880
SWIDTH 1000 1000
DWIDTH 4 14
BBX 4 14 0 -3
BITMAP
00
00
00
e0
40
40
40
40
40
40
40
e0
00
00
ENDCHAR
STARTCHAR 7881
ENCODING 7881
SWIDTH 1000 1000
DWIDTH 2 14
BBX 2 14 0 -3
BITMAP
00
00
00
80
00
80
80
80
80
80
80
80
00
00
ENDCHAR
STARTCHAR 7882
ENCODING 7882
SWIDTH 1000 1000
DWIDTH 4 14
BBX 4 14 0 -3
BITMAP
00
00
00
e0
40
40
40
40
40
40
40
e0
00
60
ENDCHAR
STARTCHAR 7883
ENCODING 7883
SWIDTH 1000 1000
DWIDTH 2 14
BBX 2 14 0 -3
BITMAP
00
00
00
80
00
80
80
80
80
80
80
80
00
80
ENDCHAR
STARTCHAR 7884
ENCODING 7884
SWIDTH 1000 1000
DWIDTH 6 14
BBX 6 14 0 -3
BITMAP
00
00
00
70
88
88
88
88
88
88
88
70
00
20
ENDCHAR
STARTCHAR 7885
ENCODING 7885
SWIDTH 1000 1000
DWIDTH 6 14
BBX 6 14 0 -3
BITMAP
00
00
00
00
00
70
88
88
88
88
88
70
00
20
ENDCHAR
STARTCHAR 7886
ENCODING 7886
SWIDTH 1000 1000
DWIDTH 6 14
BBX 6 14 0 -3
BITMAP
00
10
20
70
88
88
88
88
88
88
88
70
00
00
ENDCHAR
STARTCHAR 7887
ENCODING 7887
SWIDTH 1000 1000
DWIDTH 6 14
BBX 6 14 0 -3
BITMAP
00
00
00
10
20
70
88
88
88
88
88
70
00
00
ENDCHAR
STARTCHAR 7888
ENCODING 7888
SWIDTH 1000 1000
DWIDTH 6 14
BBX 6 14 0 -3
BITMAP
44
a8
00
70
88
88
88
88
88
88
88
70
00
00
ENDCHAR
STARTCHAR 7889
ENCODING 7889
SWIDTH 1000 1000
DWIDTH 6 14
BBX 6 14 0 -3
BITMAP
00
00
44
a8
00
70
88
88
88
88
88
70
00
00
ENDCHAR
STARTCHAR 7890
ENCODING 7890
SWIDTH 1000 1000
DWIDTH 6 14
BBX 6 14 0 -3
BITMAP
48
b0
00
70
88
88
88
88
88
88
88
70
00
00
ENDCHAR
STARTCHAR 7891
ENCODING 7891
SWIDTH 1000 1000
DWIDTH 6 14
BBX 6 14 0 -3
BITMAP
00
00
48
b0
00
70
88
88
88
88
88
70
00
00
ENDCHAR
STARTCHAR 7892
ENCODING 7892
SWIDTH 1000 1000
DWIDTH 7 14
BBX 7 14 0 -3
BITMAP
44
a8
00
70
88
88
88
88
88
88
88
70
00
00
ENDCHAR
STARTCHAR 7893
ENCODING 7893
SWIDTH 1000 1000
DWIDTH 7 14
BBX 7 14 0 -3
BITMAP
00
00
44
a8
00
70
88
88
88
88
88
70
00
00
ENDCHAR
STARTCHAR 7894
ENCODING 7894
SWIDTH 1000 1000
DWIDTH 7 14
BBX 7 14 0 -3
BITMAP
54
a8
00
70
88
88
88
88
88
88
88
70
00
00
ENDCHAR
STARTCHAR 7895
ENCODING 7895
SWIDTH 1000 1000
DWIDTH 7 14
BBX 7 14 0 -3
BITMAP
00
00
54
a8
00
70
88
88
88
88
88
70
00
00
ENDCHAR
STARTCHAR 7896
ENCODING 7896
SWIDTH 1000 1000
DWIDTH 6 14
BBX 6 14 0 -3
BITMAP
20
50
00
70
88
88
88
88
88
88
88
70
00
20
ENDCHAR
STARTCHAR 7897
ENCODING 7897
SWIDTH 1000 1000
DWIDTH 6 14
BBX 6 14 0 -3
BITMAP
00
00
20
50
00
70
88
88
88
88
88
70
00
20
ENDCHAR
STARTCHAR 7898
ENCODING 7898
SWIDTH 1000 1000
DWIDTH 8 14
BBX 8 14 0 -3
BITMAP
10
20
00
72
8a
8c
88
88
88
88
88
70
00
00
ENDCHAR
STARTCHAR 7899
ENCODING 7899
SWIDTH 1000 1000
DWIDTH 8 14
BBX 8 14 0 -3
BITMAP
00
00
10
20
00
72
8a
8c
88
88
88
70
00
00
ENDCHAR
STARTCHAR 7900
ENCODING 7900
SWIDTH 1000 1000
DWIDTH 8 14
BBX 8 14 0 -3
BITMAP
40
20
00
70
8a
8a
8c
88
88
88
88
70
00
00
ENDCHAR
STARTCHAR 7901
ENCODING 7901
SWIDTH 1000 1000
DWIDTH 8 14
BBX 8 14 0 -3
BITMAP
00
00
40
20
00
72
8a
8c
88
88
88
70
00
00
ENDCHAR
STARTCHAR 7902
ENCODING 7902
SWIDTH 1000 1000
DWIDTH 8 14
BBX 8 14 0 -3
BITMAP
30
10
20
72
8a
8c
88
88
88
88
88
70
00
00
ENDCHAR
STARTCHAR 7903
ENCODING 7903
SWIDTH 1000 1000
DWIDTH 8 14
BBX 8 14 0 -3
BITMAP
00
00
30
10
20
72
8a
8c
88
88
88
70
00
00
ENDCHAR
STARTCHAR 7904
ENCODING 7904
SWIDTH 1000 1000
DWIDTH 8 14
BBX 8 14 0 -3
BITMAP
28
50
00
72
8a
8c
88
88
88
88
88
70
00
00
ENDCHAR
STARTCHAR 7905
ENCODING 7905
SWIDTH 1000 1000
DWIDTH 8 14
BBX 8 14 0 -3
BITMAP
00
00
28
50
00
72
8a
8c
88
88
88
70
00
00
ENDCHAR
STARTCHAR 7906
ENCODING 7906
SWIDTH 1000 1000
DWIDTH 8 14
BBX 8 14 0 -3
BITMAP
00
00
00
72
8a
8c
88
88
88
88
88
70
00
20
ENDCHAR
STARTCHAR 7907
ENCODING 7907
SWIDTH 1000 1000
DWIDTH 8 14
BBX 8 14 0 -3
BITMAP
00
00
00
00
00
72
8a
8c
88
88
88
70
00
20
ENDCHAR
STARTCHAR 7908
ENCODING 7908
SWIDTH 1000 1000
DWIDTH 7 14
BBX 7 14 0 -3
BITMAP
00
00
00
84
84
84
84
84
84
84
84
78
00
78
ENDCHAR
STARTCHAR 7909
ENCODING 7909
SWIDTH 1000 1000
DWIDTH 6 14
BBX 6 14 0 -3
BITMAP
00
00
00
00
00
88
88
88
88
88
88
78
00
20
ENDCHAR
STARTCHAR 7910
ENCODING 7910
SWIDTH 1000 1000
DWIDTH 7 14
BBX 7 14 0 -3
BITMAP
00
30
10
a4
84
84
84
84
84
84
84
78
00
00
ENDCHAR
STARTCHAR 7911
ENCODING 7911
SWIDTH 1000 1000
DWIDTH 6 14
BBX 6 14 0 -3
BITMAP
00
00
30
10
20
88
88
88
88
88
88
78
00
00
ENDCHAR
STARTCHAR 7912
ENCODING 7912
SWIDTH 1000 1000
DWIDTH 9 14
BBX 9 14 0 -3
BITMAP
1000
2000
0000
8500
8500
8600
8400
8400
8400
8400
8400
7800
0000
0000
ENDCHAR
STARTCHAR 7913
ENCODING 7913
SWIDTH 1000 1000
DWIDTH 8 14
BBX 8 14 0 -3
BITMAP
00
00
10
20
00
8a
8a
8c
88
88
88
78
00
00
ENDCHAR
STARTCHAR 7914
ENCODING 7914
SWIDTH 1000 1000
DWIDTH 9 14
BBX 9 14 0 -3
BITMAP
0000
2000
1000
8500
8500
8600
8400
8400
8400
8400
8400
7800
0000
0000
ENDCHAR
STARTCHAR 7915
ENCODING 7915
SWIDTH 1000 1000
DWIDTH 8 14
BBX 8 14 0 -3
BITMAP
00
00
40
20
00
8a
8a
8c
88
88
88
78
00
00
ENDCHAR
STARTCHAR 7916
ENCODING 7916
SWIDTH 1000 1000
DWIDTH 9 14
BBX 9 14 0 -3
BITMAP
3000
1000
2000
8500
8500
8600
8400
8400
8400
8400
8400
7800
0000
0000
ENDCHAR
STARTCHAR 7917
ENCODING 7917
SWIDTH 1000 1000
DWIDTH 8 14
BBX 8 14 0 -3
BITMAP
00
00
30
10
20
8a
8a
8c
88
88
88
78
00
00
ENDCHAR
STARTCHAR 7918
ENCODING 7918
SWIDTH 1000 1000
DWIDTH 9 14
BBX 9 14 0 -3
BITMAP
1400
2800
0000
8500
8500
8600
8400
8400
8400
8400
8400
7800
0000
0000
ENDCHAR
STARTCHAR 7919
ENCODING 7919
SWIDTH 1000 1000
DWIDTH 8 14
BBX 8 14 0 -3
BITMAP
00
00
28
50
00
8a
8a
8c
88
88
88
78
00
00
ENDCHAR
STARTCHAR 7920
ENCODING 7920
SWIDTH 1000 1000
DWIDTH 9 14
BBX 9 14 0 -3
BITMAP
0000
0000
0000
8500
8500
8600
8400
8400
8400
8400
8400
7800
0000
2000
ENDCHAR
STARTCHAR 7921
ENCODING 7921
SWIDTH 1000 1000
DWIDTH 8 14
BBX 8 14 0 -3
BITMAP
00
00
00
00
00
8a
8a
8c
88
88
88
78
00
20
ENDCHAR
STARTCHAR 7922
ENCODING 7922
SWIDTH 1000 1000
DWIDTH 8 14
BBX 8 14 0 -3
BITMAP
00
00
10
82
44
44
28
10
10
10
10
10
00
00
ENDCHAR
STARTCHAR 7923
ENCODING 7923
SWIDTH 1000 1000
DWIDTH 6 14
BBX 6 14 0 -3
BITMAP
00
00
00
40
20
88
88
50
50
20
20
20
00
00
ENDCHAR
STARTCHAR 7924
ENCODING 7924
SWIDTH 1000 1000
DWIDTH 8 14
BBX 8 14 0 -3
BITMAP
00
00
00
00
82
44
44
28
10
10
10
10
00
10
ENDCHAR
STARTCHAR 7925
ENCODING 7925
SWIDTH 1000 1000
DWIDTH 6 14
BBX 6 14 0 -3
BITMAP
00
00
00
00
00
88
88
50
50
20
20
20
00
20
ENDCHAR
STARTCHAR 7926
ENCODING 7926
SWIDTH 1000 1000
DWIDTH 8 14
BBX 8 14 0 -3
BITMAP
00
00
08
92
44
44
28
10
10
10
10
10
00
00
ENDCHAR
STARTCHAR 7927
ENCODING 7927
SWIDTH 1000 1000
DWIDTH 6 14
BBX 6 14 0 -3
BITMAP
00
00
30
10
20
88
88
50
50
20
20
20
00
00
ENDCHAR
STARTCHAR 7928
ENCODING 7928
SWIDTH 1000 1000
DWIDTH 8 14
BBX 8 14 0 -3
BITMAP
00
00
00
82
44
44
28
10
10
10
10
10
00
00
ENDCHAR
STARTCHAR 7929
ENCODING 7929
SWIDTH 1000 1000
DWIDTH 6 14
BBX 6 14 0 -3
BITMAP
00
00
48
b0
00
88
88
50
50
20
20
20
00
00
ENDCHAR
STARTCHAR 7930
ENCODING 7930
SWIDTH 1000 1000
DWIDTH 7 14
BBX 7 14 0 -3
BITMAP
00
00
00
a0
a0
a0
a0
a0
a0
a0
a0
bc
00
00
ENDCHAR
STARTCHAR 7931
ENCODING 7931
SWIDTH 1000 1000
DWIDTH 7 14
BBX 7 14 0 -3
BITMAP
00
00
00
00
d8
48
48
fc
48
48
48
48
00
00
ENDCHAR
STARTCHAR 7932
ENCODING 7932
SWIDTH 1000 1000
DWIDTH 7 14
BBX 7 14 0 -3
BITMAP
00
00
20
00
88
84
84
84
84
84
84
78
00
00
ENDCHAR
STARTCHAR 7933
ENCODING 7933
SWIDTH 1000 1000
DWIDTH 6 14
BBX 6 14 0 -3
BITMAP
00
00
20
40
00
90
88
88
88
88
88
78
00
00
ENDCHAR
STARTCHAR 7934
ENCODING 7934
SWIDTH 1000 1000
DWIDTH 6 14
BBX 6 14 0 -3
BITMAP
00
00
00
00
00
88
88
50
50
20
a0
e0
00
00
ENDCHAR
STARTCHAR 7935
ENCODING 7935
SWIDTH 1000 1000
DWIDTH 6 14
BBX 6 14 0 -3
BITMAP
00
00
00
00
00
88
88
50
50
20
a0
e0
00
00
ENDCHAR
STARTCHAR 8211
ENCODING 8211
SWIDTH 1000 1000
DWIDTH 7 14
BBX 7 14 0 -3
BITMAP
00
00
00
00
00
00
00
00
00
00
00
fe
00
00
ENDCHAR
STARTCHAR 8212
ENCODING 8212
SWIDTH 1000 1000
DWIDTH 12 14
BBX 12 14 0 -3
BITMAP
0000
0000
0000
0000
0000
0000
0000
0000
0000
0000
0000
fff0
0000
0000
ENDCHAR
STARTCHAR 8217
ENCODING 8217
SWIDTH 1000 1000
DWIDTH 2 14
BBX 2 14 0 -3
BITMAP
00
00
00
00
00
00
40
40
40
00
00
00
00
00
ENDCHAR
STARTCHAR 8218
ENCODING 8218
SWIDTH 1000 1000
DWIDTH 2 14
BBX 2 14 0 -3
BITMAP
00
00
00
00
00
00
00
00
00
00
40
40
00
00
ENDCHAR
STARTCHAR 8220
ENCODING 8220
SWIDTH 1000 1000
DWIDTH 3 14
BBX 3 14 0 -3
BITMAP
00
00
00
00
00
00
a0
a0
a0
00
00
00
00
00
ENDCHAR
STARTCHAR 8221
ENCODING 8221
SWIDTH 1000 1000
DWIDTH 4 14
BBX 4 14 0 -3
BITMAP
00
00
00
00
00
00
50
50
50
00
00
00
00
00
ENDCHAR
STARTCHAR 8222
ENCODING 8222
SWIDTH 1000 1000
DWIDTH 3 14
BBX 3 14 0 -3
BITMAP
00
00
00
00
00
00
00
00
00
00
a0
a0
00
00
ENDCHAR
STARTCHAR 8224
ENCODING 8224
SWIDTH 1000 1000
DWIDTH 6 14
BBX 6 14 0 -3
BITMAP
00
00
10
10
7c
10
10
10
10
10
10
10
00
00
ENDCHAR
STARTCHAR 8225
ENCODING 8225
SWIDTH 1000 1000
DWIDTH 6 14
BBX 6 14 0 -3
BITMAP
00
00
10
10
7c
10
10
10
10
10
7c
10
00
00
ENDCHAR
STARTCHAR 8226
ENCODING 8226
SWIDTH 1000 1000
DWIDTH 3 14
BBX 3 14 0 -3
BITMAP
00
00
00
00
00
00
00
00
00
e0
e0
e0
00
00
ENDCHAR
STARTCHAR 8230
ENCODING 8230
SWIDTH 1000 1000
DWIDTH 10 14
BBX 10 14 0 -3
BITMAP
0000
0000
0000
0000
0000
0000
0000
0000
0000
0000
0000
4440
0000
0000
ENDCHAR
STARTCHAR 8240
ENCODING 8240
SWIDTH 1000 1000
DWIDTH 11 14
BBX 11 14 0 -3
BITMAP
0000
0000
0000
4800
a800
a800
5000
1000
1440
2aa0
2aa0
2440
0000
0000
ENDCHAR
STARTCHAR 8249
ENCODING 8249
SWIDTH 1000 1000
DWIDTH 3 14
BBX 3 14 0 -3
BITMAP
00
00
00
00
00
00
00
20
40
80
40
20
00
00
ENDCHAR
STARTCHAR 8250
ENCODING 8250
SWIDTH 1000 1000
DWIDTH 4 14
BBX 4 14 0 -3
BITMAP
00
00
00
00
00
00
00
40
20
10
20
40
00
00
ENDCHAR
STARTCHAR 8364
ENCODING 8364
SWIDTH 1000 1000
DWIDTH 7 14
BBX 7 14 0 -3
BITMAP
00
00
00
1e
20
40
fe
40
fe
40
20
1e
00
00
ENDCHAR
STARTCHAR 8482
ENCODING 8482
SWIDTH 1000 1000
DWIDTH 11 14
BBX 11 14 0 -3
BITMAP
0000
0000
0000
0000
0000
0000
fa20
2360
2360
2360
22a0
0000
0000
0000
ENDCHAR
ENDFONT
